<?xml version="1.0" encoding="UTF-8"?>
<svg xmlns="http://www.w3.org/2000/svg" xmlns:xlink="http://www.w3.org/1999/xlink" version="1.1" viewBox="0 0 142.155 230.531">
  <!-- Generator: Adobe Illustrator 30.2.1, SVG Export Plug-In . SVG Version: 2.1.1 Build 1)  -->
  <defs>
    <style>
      .st0 {
        fill: none;
      }

      .st1 {
        fill: #4a5323;
      }

      .st2 {
        fill: #049948;
      }

      .st3 {
        opacity: .5;
      }

      .st3, .st4 {
        mix-blend-mode: multiply;
      }

      .st4 {
        opacity: .7;
      }

      .st5 {
        isolation: isolate;
      }

      .st6 {
        fill: #101b10;
      }

      .st7 {
        clip-path: url(#clippath-1);
      }

      .st8 {
        clip-path: url(#clippath-3);
      }

      .st9 {
        clip-path: url(#clippath-4);
      }

      .st10 {
        clip-path: url(#clippath-2);
      }

      .st11 {
        fill: #4e7e3a;
      }

      .st12 {
        fill: #fff;
      }

      .st13 {
        fill: #82c341;
      }

      .st14 {
        fill: #1f7a3e;
      }

      .st15 {
        clip-path: url(#clippath);
      }

      .st16 {
        mix-blend-mode: screen;
        opacity: .4;
      }
    </style>
    <clipPath id="clippath">
      <rect class="st0" x="17.635" y="5.946" width="54.85" height="68.468"/>
    </clipPath>
    <clipPath id="clippath-1">
      <rect class="st0" x="19.82" y="10.239" width="27.525" height="41.27"/>
    </clipPath>
    <clipPath id="clippath-2">
      <rect class="st0" x="39.69" y="48.071" width="84.995" height="175.88"/>
    </clipPath>
    <clipPath id="clippath-3">
      <rect class="st0" x="41.078" y="48.071" width="83.607" height="175.88"/>
    </clipPath>
    <clipPath id="clippath-4">
      <rect class="st0" x="45.095" y="66.046" width="50.318" height="104.713"/>
    </clipPath>
  </defs>
  <g class="st5">
    <g id="Layer_2">
      <g>
        <path class="st1" d="M52.74,74.414c-1.516-1.605-2.971-4.442-3.726-6.475-3.998-10.701-1.871-12.261-5.403-23.278-2.926-9.118-15.421-25.255-18.186-28.72-1.288-1.622-2.938-3.249-4.914-3.948,0,0-4.126-1.166-2.515-4.998,1.383-3.293,6.852,2.166,7.841,3.038,13.488,11.9,15.332,24.117,34.862,36.755,2.677,1.733,10.19,7.841,11.689,10.823,1,1.982-6.092,5.714-7.191,6.819-2.549,2.554-5.403,4.809-8.28,6.963-1.366,1.027-2.743,2.055-4.176,3.021"/>
        <path class="st6" d="M72.397,58.826c-.766,1.394-3.31,3.093-5.17,4.326-.877.589-1.638,1.094-1.927,1.383-2.649,2.654-5.681,5.014-8.291,6.98-1.388,1.038-2.749,2.055-4.187,3.021-.061.044-.144.033-.189-.017-1.516-1.605-2.982-4.437-3.759-6.53-2.116-5.653-2.521-8.763-2.954-12.056-.383-2.965-.789-6.031-2.454-11.228-3.143-9.795-17.542-27.904-18.153-28.67-1.638-2.049-3.221-3.326-4.848-3.904-.072-.017-1.938-.561-2.693-2.121-.428-.888-.4-1.921.083-3.076.272-.644.705-1.016,1.299-1.111,1.977-.322,5.225,2.665,6.447,3.793.139.128.25.233.333.305,5.486,4.842,9.129,9.84,12.65,14.676,5.22,7.163,10.612,14.571,22.195,22.062,2.76,1.788,10.245,7.907,11.745,10.884.183.367.139.794-.128,1.283M52.761,74.219c1.394-.944,2.721-1.932,4.065-2.943,2.604-1.96,5.625-4.315,8.263-6.952.311-.311,1.044-.8,1.971-1.422,1.832-1.216,4.342-2.888,5.075-4.22.217-.4.255-.727.117-.999-1.472-2.938-8.896-8.996-11.633-10.767-11.628-7.524-17.042-14.954-22.273-22.14-3.676-5.048-7.147-9.812-12.611-14.632-.083-.072-.2-.178-.339-.311-1.194-1.094-4.359-4.015-6.197-3.715-.489.083-.838.378-1.066.933-.45,1.072-.478,2.021-.089,2.832.689,1.438,2.493,1.96,2.51,1.966,1.694.6,3.321,1.905,4.992,4.004.766.961,4.826,6.086,9.035,12.244,4.837,7.075,7.924,12.633,9.168,16.52,1.677,5.225,2.082,8.302,2.471,11.278.428,3.276.833,6.369,2.932,11.989.755,2.027,2.16,4.748,3.609,6.336"/>
        <g class="st3">
          <g class="st15">
            <path class="st11" d="M60.698,46.788c-19.535-12.639-21.373-24.855-34.867-36.755-.983-.872-6.458-6.33-7.835-3.037-.261.622-.361,1.172-.361,1.666.294-.189.65-.328,1.094-.405,2.688-.461,6.214,2.182,7.852,3.959,6.525,7.08,12.2,15.015,17.264,23.245,1.488,2.421,3.032,4.764,5.025,6.797,1.188,1.205,2.893,2.515,3.482,4.187.827,2.327-1.294,4.337-3.659,5.236-2.027.772-2.243.922-3.365-.5,1.144,5.758.644,8.613,3.682,16.759.761,2.032,2.216,4.87,3.732,6.475,1.433-.966,2.81-1.994,4.176-3.021,2.871-2.155,5.725-4.409,8.28-6.963,1.099-1.105,8.191-4.837,7.191-6.819-1.499-2.982-9.012-9.09-11.689-10.823"/>
          </g>
        </g>
        <path class="st2" d="M55.593,50.169s-22.684,8.441-13.866,32.174c5.953,16.026,16.97,29.442,26.182,43.619,9.001,13.866,15.754,29.236,20.713,44.968,2.849,9.057,5.003,18.33,6.369,27.698.455,3.16,2.871,26.232,8.407,25.299,6.364-1.077,17.075-4.942,20.946-64.337,1.522-23.278-2.038-47.839-11.606-69.457-6.797-15.36-18.208-35.195-35.023-40.637-6.747-2.177-15.582-1.777-22.123.672"/>
        <g class="st16">
          <g class="st7">
            <path class="st13" d="M19.82,10.323s2.91-.105,7.302,5.553c4.392,5.67,15.615,22.551,17.253,26.282,1.638,3.726,2.454,9.351,2.454,9.351,0,0,1.777-4.959-1.277-10.312-3.054-5.359-15.276-22.39-18.342-26.343-3.065-3.959-5.348-4.942-7.391-4.531"/>
          </g>
        </g>
        <g class="st4">
          <g class="st10">
            <path class="st14" d="M77.715,49.498c-6.747-2.182-15.582-1.783-22.123.672,0,0-22.684,8.44-13.866,32.168,5.953,16.026,16.975,29.447,26.182,43.624,9.001,13.86,15.754,29.236,20.713,44.968,2.854,9.057,5.003,18.33,6.369,27.693.461,3.165,2.876,26.238,8.413,25.299,6.358-1.077,17.075-4.937,20.946-64.337,1.516-23.273-2.043-47.833-11.611-69.457-6.797-15.36-18.208-35.189-35.023-40.631M106.641,155.971c5.009,41.187-5.953,51.787-5.953,51.787-3.932,2.243-.422-10.889-6.764-34.223-6.341-23.339-13.782-36.128-35.106-65.942-21.329-29.819-15.165-41.436-15.165-41.436,0,0,4.026-11.073,21.546-1.727,17.509,9.346,36.433,50.343,41.442,91.541"/>
          </g>
        </g>
        <g class="st4">
          <g class="st8">
            <path class="st14" d="M77.714,49.496c-6.747-2.177-15.582-1.777-22.123.672,0,0-10.64,3.965-14.515,14.088,1.655-3.021,3.909-5.686,7.041-7.774,18.23-12.172,39.032,6.025,49.299,21.535,12.183,18.403,18.092,40.714,20.663,62.321,1.199,10.095,1.727,20.291,1.338,30.408-.428,11.173-.85,22.739-4.431,33.312-1.955,5.758-8.23,19.413-16.187,13.05-.178-.139-.344-.294-.516-.444,1.277,4.331,2.96,7.624,5.12,7.263,6.358-1.077,17.075-4.942,20.946-64.337,1.516-23.278-2.043-47.839-11.611-69.457-6.797-15.36-18.208-35.195-35.023-40.637"/>
          </g>
        </g>
        <g class="st16">
          <g class="st9">
            <path class="st12" d="M45.83,66.049s-4.67,10.217,9.529,31.308c14.199,21.096,31.269,44.318,40.054,73.399,0,0-2.038-18.197-16.42-42.453-14.382-24.255-34.379-48.055-33.162-62.254"/>
          </g>
        </g>
      </g>
    </g>
  </g>
</svg>