<?xml version="1.0" encoding="UTF-8"?>
<svg xmlns="http://www.w3.org/2000/svg" xmlns:xlink="http://www.w3.org/1999/xlink" version="1.1" viewBox="0 0 142.155 230.531">
  <!-- Generator: Adobe Illustrator 30.2.1, SVG Export Plug-In . SVG Version: 2.1.1 Build 1)  -->
  <defs>
    <style>
      .st0 {
        fill: none;
      }

      .st1 {
        fill: #4a5323;
      }

      .st2 {
        fill: #049948;
      }

      .st3 {
        opacity: .5;
      }

      .st3, .st4 {
        mix-blend-mode: multiply;
      }

      .st4 {
        opacity: .7;
      }

      .st5 {
        isolation: isolate;
      }

      .st6 {
        fill: #101b10;
      }

      .st7 {
        clip-path: url(#clippath-1);
      }

      .st8 {
        clip-path: url(#clippath-3);
      }

      .st9 {
        clip-path: url(#clippath-4);
      }

      .st10 {
        clip-path: url(#clippath-2);
      }

      .st11 {
        fill: #4e7e3a;
      }

      .st12 {
        fill: #fff;
      }

      .st13 {
        fill: #82c341;
      }

      .st14 {
        fill: #1f7a3e;
      }

      .st15 {
        clip-path: url(#clippath);
      }

      .st16 {
        mix-blend-mode: screen;
        opacity: .4;
      }
    </style>
    <clipPath id="clippath">
      <rect class="st0" x="77.061" y="148.527" width="58.491" height="53.069"/>
    </clipPath>
    <clipPath id="clippath-1">
      <rect class="st0" x="100.897" y="167.353" width="32.299" height="30.78"/>
    </clipPath>
    <clipPath id="clippath-2">
      <rect class="st0" x="6.464" y="28.028" width="96.99" height="147.615"/>
    </clipPath>
    <clipPath id="clippath-3">
      <rect class="st0" x="6.464" y="28.028" width="96.829" height="147.615"/>
    </clipPath>
    <clipPath id="clippath-4">
      <rect class="st0" x="33.419" y="73.068" width="65.405" height="81.342"/>
    </clipPath>
  </defs>
  <g class="st5">
    <g id="Layer_2">
      <g>
        <path class="st1" d="M90.953,148.525c1.665,1.09,3.53,3.269,4.62,4.894,5.736,8.531,4.205,10.349,9.6,19.254,4.473,7.374,18.793,18.9,21.935,21.353,1.471,1.15,3.256,2.233,5.134,2.433,0,0,3.858.154,3.249,3.851-.521,3.169-6.458-.468-7.501-1.023-14.307-7.601-18.479-17.917-38.227-24.903-2.708-.956-10.563-4.733-12.508-7.033-1.284-1.524,4.145-6.278,4.874-7.474,1.705-2.768,3.73-5.342,5.796-7.829.983-1.19,1.972-2.38,3.029-3.523"/>
        <path class="st6" d="M76.995,166.29c.381-1.384,2.253-3.396,3.624-4.874.648-.695,1.203-1.297,1.397-1.611,1.772-2.875,3.924-5.582,5.803-7.849.996-1.197,1.979-2.373,3.035-3.523.047-.047.12-.06.174-.02,1.658,1.09,3.537,3.263,4.66,4.934,3.029,4.506,4.038,7.147,5.101,9.941.963,2.514,1.952,5.114,4.499,9.319,4.807,7.922,21.206,20.772,21.902,21.313,1.865,1.451,3.517,2.24,5.061,2.4.067.007,1.818.087,2.801,1.297.562.689.755,1.604.575,2.714-.107.622-.408,1.036-.903,1.243-1.671.702-5.134-1.243-6.445-1.972-.147-.08-.267-.147-.354-.194-5.816-3.095-10.055-6.712-14.153-10.215-6.07-5.181-12.341-10.543-24.054-14.681-2.788-.983-10.63-4.78-12.562-7.073-.241-.281-.287-.668-.16-1.15M90.975,148.7c-1.023,1.117-1.979,2.26-2.948,3.43-1.872,2.26-4.025,4.954-5.783,7.815-.201.341-.742.923-1.431,1.658-1.35,1.451-3.196,3.436-3.557,4.76-.107.394-.074.689.107.903,1.905,2.26,9.674,6.017,12.442,6.993,11.76,4.158,18.057,9.533,24.141,14.735,4.279,3.65,8.317,7.093,14.106,10.175.087.047.214.114.361.201,1.277.709,4.66,2.607,6.204,1.959.415-.174.655-.508.742-1.043.167-1.03-.007-1.865-.515-2.494-.909-1.116-2.594-1.203-2.614-1.203-1.605-.167-3.303-.969-5.201-2.454-.882-.689-5.502-4.325-10.483-8.838-5.716-5.188-9.58-9.413-11.486-12.549-2.561-4.225-3.557-6.839-4.519-9.366-1.063-2.781-2.066-5.402-5.081-9.888-1.083-1.618-2.881-3.704-4.486-4.793"/>
        <g class="st3">
          <g class="st15">
            <path class="st11" d="M89.762,174.388c19.756,6.98,23.921,17.295,38.227,24.897,1.043.562,6.98,4.198,7.501,1.023.1-.602.074-1.103-.033-1.531-.214.221-.501.421-.876.582-2.253.963-5.897-.608-7.702-1.825-7.2-4.834-13.826-10.603-19.99-16.754-1.812-1.805-3.65-3.537-5.816-4.894-1.297-.816-3.062-1.604-3.931-2.942-1.21-1.865.227-4.071,2.113-5.355,1.611-1.096,1.772-1.277,3.049-.261-2.206-4.807-2.36-7.414-6.732-13.912-1.09-1.618-2.955-3.797-4.62-4.887-1.05,1.143-2.046,2.326-3.029,3.517-2.066,2.487-4.091,5.061-5.79,7.835-.735,1.197-6.164,5.943-4.874,7.474,1.939,2.3,9.794,6.077,12.502,7.033"/>
          </g>
        </g>
        <path class="st2" d="M93.526,170.359s18.104-12.141,5.415-31.081c-8.571-12.789-21.026-22.236-32.063-32.732-10.784-10.255-19.909-22.309-27.551-35.052-4.392-7.334-8.21-15.009-11.372-22.924-1.063-2.674-8.003-22.376-12.656-20.397-5.348,2.266-13.926,7.896-4.887,60.731,3.537,20.705,11.8,41.47,24.703,58.411,9.166,12.027,23.312,27.009,39.177,28.259,6.365.501,14.019-1.698,19.234-5.215"/>
        <g class="st16">
          <g class="st7">
            <path class="st13" d="M133.196,197.775s-2.527.702-7.561-3.336c-5.027-4.051-18.392-16.486-20.611-19.408-2.213-2.922-4.105-7.682-4.105-7.682,0,0-.515,4.713,3.276,8.771,3.797,4.051,18.071,16.413,21.581,19.234,3.517,2.821,5.716,3.209,7.421,2.42"/>
          </g>
        </g>
        <g class="st4">
          <g class="st10">
            <path class="st14" d="M74.291,175.579c6.365.495,14.019-1.705,19.234-5.221,0,0,18.104-12.141,5.415-31.081-8.571-12.789-21.026-22.236-32.063-32.725-10.784-10.262-19.909-22.316-27.544-35.059-4.392-7.334-8.216-15.009-11.379-22.924-1.063-2.674-8.003-22.376-12.656-20.397-5.348,2.273-13.926,7.896-4.887,60.731,3.537,20.705,11.8,41.477,24.703,58.411,9.166,12.027,23.312,27.016,39.177,28.266M26.677,88.367c-13.01-35.032-5.622-46.604-5.622-46.604,2.975-2.788,2.647,9.447,13.09,28.56,10.436,19.114,19.629,28.761,44.545,50.415,24.917,21.654,21.948,33.113,21.948,33.113,0,0-1.21,10.543-18.505,6.024-17.295-4.519-42.446-36.476-55.456-71.508"/>
          </g>
        </g>
        <g class="st4">
          <g class="st8">
            <path class="st14" d="M74.291,175.576c6.365.495,14.019-1.705,19.234-5.215,0,0,8.491-5.703,9.767-15.377-.816,2.995-2.233,5.796-4.539,8.283-13.418,14.474-35.446,2.888-47.687-8.551-14.521-13.571-24.362-31.876-31.134-50.268-3.162-8.591-5.756-17.402-7.535-26.347-1.966-9.874-4.018-20.096-3.089-30.105.508-5.455,3.149-18.726,11.446-14.822.187.087.368.187.548.281-2.026-3.523-4.185-6.057-6.004-5.288-5.348,2.273-13.926,7.896-4.887,60.737,3.537,20.705,11.8,41.47,24.703,58.404,9.166,12.034,23.312,27.016,39.177,28.266"/>
          </g>
        </g>
        <g class="st16">
          <g class="st9">
            <path class="st12" d="M98.755,154.407s1.952-9.928-14.895-25.431c-16.847-15.504-36.663-32.277-50.442-55.91,0,0,5.596,15.51,23.265,33.755,17.67,18.231,40.166,34.891,42.072,47.587"/>
          </g>
        </g>
      </g>
    </g>
  </g>
</svg>