<?xml version="1.0" encoding="UTF-8"?>
<svg xmlns="http://www.w3.org/2000/svg" xmlns:xlink="http://www.w3.org/1999/xlink" version="1.1" viewBox="0 0 142.155 230.531">
  <!-- Generator: Adobe Illustrator 30.2.1, SVG Export Plug-In . SVG Version: 2.1.1 Build 1)  -->
  <defs>
    <style>
      .st0 {
        fill: none;
      }

      .st1 {
        fill: #4a5323;
      }

      .st2 {
        fill: #049948;
      }

      .st3 {
        opacity: .5;
      }

      .st3, .st4 {
        mix-blend-mode: multiply;
      }

      .st4 {
        opacity: .7;
      }

      .st5 {
        isolation: isolate;
      }

      .st6 {
        fill: #101b10;
      }

      .st7 {
        clip-path: url(#clippath-1);
      }

      .st8 {
        clip-path: url(#clippath-3);
      }

      .st9 {
        clip-path: url(#clippath-4);
      }

      .st10 {
        clip-path: url(#clippath-2);
      }

      .st11 {
        fill: #4e7e3a;
      }

      .st12 {
        fill: #fff;
      }

      .st13 {
        fill: #82c341;
      }

      .st14 {
        fill: #1f7a3e;
      }

      .st15 {
        clip-path: url(#clippath);
      }

      .st16 {
        mix-blend-mode: screen;
        opacity: .4;
      }
    </style>
    <clipPath id="clippath">
      <rect class="st0" x="93.258" y="7.392" width="33.547" height="77.684"/>
    </clipPath>
    <clipPath id="clippath-1">
      <rect class="st0" x="107.588" y="11.15" width="16.738" height="48.804"/>
    </clipPath>
    <clipPath id="clippath-2">
      <rect class="st0" x="6.985" y="62.625" width="125.194" height="159.894"/>
    </clipPath>
    <clipPath id="clippath-3">
      <rect class="st0" x="6.985" y="62.63" width="125.194" height="159.889"/>
    </clipPath>
    <clipPath id="clippath-4">
      <rect class="st0" x="44.782" y="68.787" width="50.561" height="108.859"/>
    </clipPath>
  </defs>
  <g class="st5">
    <g id="Layer_2">
      <g>
        <path class="st1" d="M93.256,79.831c.276-2.273,1.574-5.309,2.69-7.259,5.876-10.272,8.528-9.616,14.962-19.728,5.323-8.364,9.906-29.011,10.834-33.504.436-2.104.642-4.494-.112-6.532,0,0-1.804-4.058,2.315-5.319,3.538-1.078,2.816,6.898,2.774,8.261-.548,18.627-9.058,28.191-6.185,52.117.394,3.28.506,13.313-.876,16.485-.918,2.109-8.585-1.068-10.197-1.214-3.721-.342-7.408-1.12-11.031-1.982-1.724-.408-3.454-.825-5.173-1.326"/>
        <path class="st6" d="M118.697,85.164c-1.621.314-4.658-.59-6.874-1.251-1.045-.314-1.954-.581-2.376-.619-3.871-.356-7.76-1.204-11.054-1.987-1.748-.412-3.458-.825-5.183-1.326-.07-.023-.117-.094-.108-.169.276-2.268,1.56-5.309,2.708-7.319,3.107-5.426,5.314-7.811,7.647-10.337,2.109-2.268,4.283-4.62,7.319-9.391,5.722-8.997,10.604-32.464,10.81-33.458.553-2.662.515-4.77-.103-6.443-.033-.07-.834-1.917-.094-3.547.426-.933,1.27-1.598,2.507-1.973.698-.216,1.279-.112,1.743.295,1.574,1.364,1.34,5.928,1.251,7.647-.009.192-.014.351-.019.464-.225,7.582-1.795,13.795-3.313,19.803-2.249,8.903-4.578,18.106-2.873,32.296.403,3.383.492,13.397-.89,16.565-.169.389-.539.637-1.101.75M93.426,79.719c1.673.483,3.341.886,5.037,1.289,3.285.778,7.16,1.626,11.012,1.978.455.037,1.331.3,2.437.633,2.188.651,5.178,1.542,6.724,1.242.464-.089.75-.276.876-.567,1.364-3.121,1.27-13.05.867-16.405-1.71-14.245.623-23.477,2.882-32.408,1.584-6.27,3.079-12.193,3.304-19.732,0-.117.009-.276.019-.478.084-1.678.314-6.129-1.143-7.394-.389-.337-.853-.422-1.448-.234-1.153.351-1.931.956-2.315,1.804-.689,1.504.084,3.285.094,3.304.647,1.743.684,3.903.122,6.626-.258,1.251-1.654,7.877-3.772,15.309-2.432,8.543-4.813,14.681-7.08,18.247-3.055,4.798-5.239,7.155-7.352,9.437-2.324,2.512-4.522,4.883-7.605,10.281-1.115,1.945-2.352,4.864-2.657,7.071"/>
        <g class="st3">
          <g class="st15">
            <path class="st11" d="M120.535,67.87c-2.873-23.931,5.637-33.49,6.181-52.122.042-1.359.769-9.339-2.769-8.257-.675.206-1.176.492-1.565.815.342.108.689.305,1.045.609,2.146,1.832,2.38,6.387,2.048,8.87-1.317,9.892-3.88,19.667-7.08,29.156-.942,2.788-1.785,5.567-2.085,8.5-.173,1.748-.089,3.974-1.026,5.548-1.307,2.202-4.311,1.846-6.598.558-1.954-1.101-2.221-1.176-1.828-3.013-3.833,4.728-6.438,6.218-10.909,14.034-1.12,1.949-2.413,4.986-2.69,7.263,1.715.501,3.449.918,5.173,1.326,3.622.858,7.305,1.64,11.031,1.982,1.607.141,9.278,3.318,10.192,1.214,1.387-3.177,1.275-13.21.881-16.485"/>
          </g>
        </g>
        <path class="st2" d="M114.46,66.043s-21.752-12.479-34.812,10.267c-8.824,15.361-12.212,33.027-17.404,49.755-5.08,16.349-12.854,31.916-22.099,46.288-5.328,8.271-11.288,16.124-17.844,23.416-2.216,2.46-18.992,19.672-14.583,23.463,5.07,4.353,15.248,10.328,65.125-25.937,19.545-14.208,36.752-33.317,47.637-55.257,7.732-15.59,15.97-37.82,9.17-54.821-2.737-6.813-8.908-13.584-15.192-17.174"/>
        <g class="st16">
          <g class="st7">
            <path class="st13" d="M122.502,11.152s2.01,2.245.412,9.498c-1.607,7.254-7.615,27.375-9.503,31.152-1.884,3.772-5.825,8.149-5.825,8.149,0,0,5.126-1.87,7.371-7.849s7.713-27,8.828-32.061c1.125-5.066.398-7.535-1.284-8.889"/>
          </g>
        </g>
        <g class="st4">
          <g class="st10">
            <path class="st14" d="M129.652,83.216c-2.737-6.813-8.908-13.585-15.192-17.174,0,0-21.752-12.479-34.812,10.267-8.824,15.361-12.212,33.027-17.404,49.755-5.08,16.354-12.854,31.916-22.099,46.288-5.328,8.271-11.288,16.124-17.844,23.416-2.216,2.465-18.992,19.672-14.578,23.463,5.066,4.353,15.243,10.328,65.121-25.937,19.55-14.208,36.752-33.317,47.637-55.257,7.736-15.59,15.97-37.82,9.17-54.821M63.997,176.795c-29.489,31.279-45.196,29.564-45.196,29.564-4.391-1.645,8.393-7.549,22.783-28.059,14.386-20.51,19.643-34.91,29.268-71.648,9.625-36.742,22.961-39.526,22.961-39.526,0,0,11.485-4.128,15.651,16.017,4.152,20.14-15.97,62.375-45.468,93.653"/>
          </g>
        </g>
        <g class="st4">
          <g class="st8">
            <path class="st14" d="M129.65,83.218c-2.732-6.818-8.903-13.589-15.192-17.174,0,0-10.206-5.853-20.834-2.235,3.505-.679,7.113-.651,10.857.459,21.771,6.457,21.054,35.084,15.501,53.542-6.588,21.893-20.445,41.377-35.96,57.74-7.244,7.643-15.014,14.812-23.331,21.209-9.18,7.057-18.673,14.386-29.47,18.538-5.886,2.259-20.918,6.303-21.119-4.245-.005-.239.005-.473.014-.712-2.605,3.889-4.114,7.408-2.395,8.889,5.07,4.353,15.243,10.333,65.121-25.932,19.55-14.208,36.757-33.317,47.642-55.261,7.732-15.585,15.97-37.816,9.166-54.816"/>
          </g>
        </g>
        <g class="st16">
          <g class="st9">
            <path class="st12" d="M95.343,68.786s-11.232,3.051-18.627,28.331c-7.399,25.281-14.587,54.268-31.935,80.528,0,0,13.144-13.678,22.938-41.203,9.794-27.525,15.506-59.216,27.624-67.656"/>
          </g>
        </g>
      </g>
    </g>
  </g>
</svg>