<?xml version="1.0" encoding="UTF-8"?>
<svg id="Layer_2" xmlns="http://www.w3.org/2000/svg" version="1.1" viewBox="0 0 142.155 230.531">
  <!-- Generator: Adobe Illustrator 30.2.1, SVG Export Plug-In . SVG Version: 2.1.1 Build 1)  -->
  <defs>
    <style>
      .st0 {
        fill: #2c6733;
      }

      .st1 {
        fill: #4b8b3f;
      }

      .st2 {
        fill: #82c341;
      }
    </style>
  </defs>
  <path class="st1" d="M68.365,125.788c.116,4.96.275,10.483,2.425,12.59.757-.098,1.307-.641,1.778-1.252.849,2.963,1.808,6.231,3.054,9.334,1.216,3.128,2.737,6.066,4.838,8.302.684-.202,1.087-.776,1.497-1.35,1.625,3.274,3.525,6.909,5.474,10.306s4.026,6.512,6.127,8.638c.727-.397.904-1.521,1.081-2.627,3.824,6.482,7.52,11.222,10.666,13.507.532-.385.696-1.087.782-1.857,2.077,3.543,5.205,7.99,8.528,10.562,3.433-2.437,6.365-7.453,7.905-11.625.189.831.428,1.588,1.002,1.955,2.871-2.89,5.907-8.882,7.63-17.673.501,1.246.977,2.529,1.796,2.804,1.46-3.128,2.407-7.624,2.834-12.627.428-5.003.238-10.513-.367-15.62.69.483,1.387.977,2.083.831.452-4.13-.318-9.09-1.894-14.179-1.607-5.101-4.062-10.318-6.732-14.985.91.281,1.723.409,2.236-.263-.305-1.289-.977-2.761-1.869-4.325-.88-1.564-2.156-3.232-3.513-4.899-1.393-1.668-3.042-3.342-4.716-4.93-.886-.794-1.784-1.57-2.682-2.309-.898-.745-1.79-1.466-2.749-2.138.861-.44,1.539-.977,1.588-1.857-2.993-3.91-11.839-7.789-21.57-8.986.226-1.045.513-2.089-.483-3.39-.764-.25-2.04-.342-3.549-.25-1.546.116-3.305.409-5.015.825-.849.208-1.692.446-2.486.709-.8.263-1.582.574-2.279.874-1.393.611-2.505,1.246-3.14,1.778-5.131,4.307-9.133,12.23-11.228,18.418-.257.764-.501,1.93-.745,3.256-.238,1.313-.513,2.804-.788,4.276-.269,1.454-.531,2.828-.721,3.928-.202,1.148-.33,2.04-.257,2.474.776.171,1.588-.434,2.407-.977-.666,6.781-2.144,12.028-1.038,13.94.629-.092,1.35-.574,2.089-1.185"/>
  <path class="st0" d="M68.365,125.788c.116,4.96.275,10.483,2.425,12.59.757-.098,1.307-.641,1.778-1.252.849,2.963,1.808,6.231,3.054,9.334,1.216,3.128,2.737,6.066,4.838,8.302.684-.202,1.087-.776,1.497-1.35,1.625,3.274,3.525,6.909,5.474,10.306s4.026,6.512,6.127,8.638c.727-.397.904-1.521,1.081-2.627,3.824,6.482,7.52,11.222,10.666,13.507.532-.385.696-1.087.782-1.857,2.077,3.543,5.205,7.99,8.528,10.562l.006-.006v-1.289c.012-.843-.006-2.077-.037-3.647-.085-3.146-.293-7.636-.855-13-.562-5.364-1.448-11.601-2.792-18.204-1.381-6.598-3.189-13.568-5.571-20.355-2.401-6.775-5.29-13.384-8.675-19.218-3.366-5.84-7.16-10.91-10.849-14.838-.458-.489-.904-.984-1.35-1.442-.47-.446-.929-.88-1.375-1.301-.44-.428-.874-.837-1.295-1.24-.422-.403-.874-.739-1.289-1.1-.849-.69-1.619-1.375-2.376-1.943-.764-.556-1.472-1.069-2.108-1.527-.318-.232-.623-.446-.904-.654-.293-.195-.574-.36-.837-.519-.519-.324-.959-.599-1.32-.819-.715-.44-1.1-.678-1.1-.678-1.9,3.293-3.433,6.817-4.472,9.915-.257.764-.501,1.93-.745,3.256-.238,1.313-.513,2.804-.788,4.276-.269,1.454-.531,2.828-.721,3.928-.202,1.148-.33,2.04-.257,2.474.776.171,1.588-.434,2.407-.977-.666,6.781-2.144,12.028-1.038,13.94.629-.092,1.35-.574,2.089-1.185"/>
  <path class="st2" d="M79.509,117.273c1.759-3.238,6.927-11.735,7.606-12.627,3.445,4.056,6.255,7.661,10.471,15.248-2.535,1.82-5.571,6.084-8.302,10.837-5.229,9.243-6.139,13.721-6.921,19.884,1.521-7.361,2.969-12.395,8.559-20.269,1.906-2.81,4.814-6.934,7.581-8.736,5.565,11.045,8.107,19.817,8.107,19.817-11.265,17.196-11.851,21.803-12.419,26.561.391-2.291.825-4.227,1.607-6.359,1.191-3.14,6.469-11.937,11.393-18.321.458,1.454,1.368,4.624,2.511,9.243,1.142,4.655,1.973,9.383,1.973,9.383-1.558,2.156-4.325,7.379-5.15,11.552-.409,1.961-.666,3.739-.929,5.675.825-4.759,1.68-9.951,6.28-16.17,0,0,.092.446.214,1.234,1.277,7.862,2.15,15.009,2.444,23.159.043,1.368.073,2.505.073,3.305.006.794.012,1.252.012,1.252,0,0,.006-.501.025-1.368.024-.867.012-2.107.012-3.598-.122-9.536-1.093-18.211-2.437-26.683,2.389.495,8.442,6.359,10.165,17.264-1.362-11.277-7.593-17.795-10.3-18.082-2.114-11.784-4.374-19.243-4.692-20.165,2.737.409,7.624,2.291,12.157,5.944,5.186,4.276,9.224,11.607,10.849,16.708-1.234-4.569-3.812-9.548-6.512-13.311-4.46-6.133-12.67-10.629-17.013-10.996-1.765-5.724-4.606-13.042-7.88-19.316,5.321-.281,10.483.489,14.741,1.93,10.855,3.604,16.256,10.293,20.41,15.834-5.339-7.825-11.772-15.535-25.498-18.711-3.115-.739-6.616-1.075-10.666-.99,0,0-4.313-8.284-11.222-15.901,5.565-2.474,7.899-2.615,10.593-2.499,13.244.464,24.698,9.102,28.553,11.491-4.655-3.354-8.473-6.787-17.545-10.464-4.63-1.814-11.124-3.531-15.944-2.706-1.979.397-5.455,1.442-7.367,2.352-.44-.434-4.246-4.215-6.689-5.926,7.092-8.766,22.523-8.461,34.228-1.814-10.361-7.105-27.905-9.805-36.452.165-.177-.153-3.348-2.15-3.549-2.279-.666-.422-1.417-.782-2.15-1.185-2.547-1.338-.758-.525-6.048-2.847l-1.155,3.036c6.83,2.798,8.681,3.867,13.83,7.477-1.692,3.207-3.702,7.997-4.643,11.326-1.228,4.252-2.908,12.181-2.725,16.427.495-4.924,2.541-11.32,3.708-14.973,1.723-5.235,3.25-7.563,5.736-11.149,0,0,2.48,1.875,6.402,5.974-.849,1.045-6.805,13.049-7.245,14.081-3.03,7.19-3.323,7.813-3.806,9.31-2.04,6.298-1.851,8.827-1.833,9.792.049-.953.483-3.751,1.827-7.74.99-2.938,3.58-8.4,5.028-11.075"/>
  <path class="st1" d="M82.832,77.104c.171-2.731.342-5.773-.739-7.031-.422.018-.751.293-1.038.605-.33-1.668-.703-3.507-1.24-5.272-.519-1.772-1.216-3.458-2.266-4.789-.385.079-.635.379-.886.672-.739-1.875-1.613-3.959-2.523-5.919-.916-1.955-1.912-3.763-2.963-5.034-.415.183-.568.794-.721,1.393-1.796-3.739-3.604-6.518-5.223-7.917-.312.183-.434.562-.519.983-.977-2.046-2.48-4.637-4.191-6.2-1.998,1.173-3.849,3.794-4.887,6.011-.061-.464-.159-.892-.458-1.118-1.711,1.454-3.659,4.6-5.022,9.353-.214-.709-.415-1.442-.855-1.631-.947,1.655-1.68,4.075-2.15,6.805-.464,2.731-.623,5.767-.531,8.601-.354-.293-.715-.605-1.106-.55-.44,2.242-.25,5.003.379,7.874.641,2.877,1.747,5.858,2.993,8.546-.489-.195-.929-.305-1.24.043.104.721.409,1.564.825,2.462.409.904,1.032,1.882,1.698,2.859.69.983,1.515,1.979,2.364,2.926.446.483.904.947,1.362,1.399.458.452.916.886,1.411,1.301-.495.202-.892.464-.959.947,1.46,2.291,6.139,4.832,11.43,5.95-.171.562-.379,1.124.104,1.882.409.177,1.106.287,1.937.305.855.006,1.839-.067,2.798-.22.477-.073.947-.165,1.399-.269.452-.11.892-.244,1.289-.373.8-.275,1.436-.568,1.808-.831,3.024-2.126,5.596-6.292,7.037-9.591.177-.409.36-1.039.562-1.753.189-.709.415-1.521.629-2.315.22-.788.428-1.527.58-2.126.165-.617.281-1.1.263-1.344-.422-.134-.892.159-1.374.422.684-3.69,1.747-6.506,1.228-7.606-.348.018-.77.25-1.203.55"/>
  <path class="st0" d="M82.832,77.104c.171-2.731.342-5.773-.739-7.031-.422.018-.751.293-1.038.605-.33-1.668-.703-3.507-1.24-5.272-.519-1.772-1.216-3.458-2.266-4.789-.385.079-.635.379-.886.672-.739-1.875-1.613-3.959-2.523-5.919-.916-1.955-1.912-3.763-2.963-5.034-.415.183-.568.794-.721,1.393-1.796-3.739-3.604-6.518-5.223-7.917-.312.183-.434.562-.519.983-.977-2.046-2.48-4.637-4.191-6.2,0,0-.025.244-.061.709-.049.458-.092,1.142-.153,2.004-.104,1.735-.195,4.209-.141,7.184.061,2.975.25,6.439.684,10.129.446,3.69,1.112,7.606,2.102,11.448,1.002,3.83,2.285,7.606,3.867,10.965,1.576,3.366,3.421,6.329,5.266,8.662.226.287.446.58.672.855.238.269.47.525.69.782.226.25.446.495.66.739.214.238.446.446.654.666.434.415.825.831,1.216,1.179.397.342.757.654,1.087.935.165.14.318.275.464.403.153.122.299.226.434.324.269.202.501.373.69.513.373.275.568.422.568.422,1.203-1.723,2.205-3.586,2.926-5.235.177-.409.36-1.039.562-1.753.189-.709.415-1.521.629-2.315.22-.788.428-1.527.58-2.126.165-.617.281-1.1.263-1.344-.422-.134-.892.159-1.374.422.684-3.69,1.747-6.506,1.228-7.606-.348.018-.77.25-1.203.55"/>
  <path class="st2" d="M76.31,81.26c-1.118,1.698-4.356,6.121-4.771,6.579-1.704-2.389-3.079-4.502-5.04-8.87,1.484-.88,3.348-3.079,5.07-5.559,3.305-4.832,4.02-7.251,4.74-10.605-1.185,3.977-2.218,6.671-5.657,10.739-1.179,1.454-2.969,3.58-4.576,4.441-2.541-6.329-3.525-11.265-3.525-11.265,7.001-8.919,7.532-11.424,8.07-14.014-.324,1.24-.654,2.285-1.179,3.421-.806,1.668-4.117,6.249-7.123,9.53-.183-.819-.532-2.602-.941-5.199-.409-2.608-.648-5.248-.648-5.248.959-1.112,2.725-3.849,3.372-6.103.318-1.057.544-2.022.776-3.073-.678,2.572-1.387,5.388-4.203,8.589,0,0-.03-.25-.061-.69-.336-4.38-.483-8.351-.263-12.841.043-.751.079-1.375.116-1.814.037-.44.055-.69.055-.69,0,0-.031.275-.079.751-.055.477-.104,1.155-.171,1.973-.385,5.248-.257,10.061.086,14.777-1.289-.385-4.343-3.891-4.777-9.964.22,6.262,3.335,10.135,4.808,10.422.611,6.573,1.503,10.776,1.637,11.295-1.484-.348-4.081-1.613-6.402-3.836-2.645-2.59-4.521-6.805-5.18-9.689.47,2.572,1.649,5.425,2.957,7.618,2.163,3.58,6.463,6.439,8.833,6.842.696,3.225,1.918,7.379,3.421,10.984-2.938-.098-5.736-.764-8.009-1.753-5.791-2.492-8.449-6.414-10.471-9.658,2.566,4.551,5.742,9.09,13.134,11.479,1.674.55,3.58.898,5.81,1.045,0,0,1.985,4.753,5.419,9.261-3.17,1.1-4.459,1.063-5.932.874-7.257-.874-13.146-6.158-15.15-7.648,2.401,2.059,4.337,4.124,9.151,6.567,2.456,1.216,5.944,2.468,8.632,2.236,1.106-.122,3.06-.532,4.154-.947.226.263,2.138,2.517,3.403,3.574-4.313,4.484-12.774,3.592-18.895-.611,5.364,4.392,14.875,6.695,20.037,1.619.092.098,1.741,1.344,1.845,1.423.342.257.739.489,1.124.745,1.338.855.391.33,3.189,1.851l.776-1.613c-3.623-1.857-4.588-2.529-7.245-4.759,1.081-1.68,2.407-4.221,3.079-6.005.874-2.279,2.169-6.555,2.266-8.901-.501,2.688-1.924,6.103-2.737,8.058-1.191,2.792-2.144,4.001-3.678,5.852,0,0-1.271-1.142-3.232-3.58.513-.538,4.349-6.848,4.637-7.398,2.004-3.806,2.193-4.136,2.529-4.936,1.411-3.366,1.43-4.765,1.466-5.29-.073.519-.44,2.034-1.368,4.16-.684,1.57-2.358,4.453-3.28,5.852"/>
  <path class="st1" d="M45.238,91.557c-3.671,1.002-7.758,2.15-8.931,4.142.214.55.721.855,1.258,1.093-2.047,1.185-4.301,2.505-6.384,4.007-2.102,1.484-4.014,3.164-5.29,5.144.275.47.782.666,1.289.867-2.144,1.814-4.496,3.904-6.671,5.987-2.162,2.083-4.105,4.209-5.296,6.17.428.464,1.301.391,2.156.318-4.117,4.05-6.964,7.685-8.082,10.452.385.324.941.318,1.527.238-2.254,2.205-4.991,5.357-6.286,8.314,2.45,2.108,6.732,3.36,10.129,3.733-.587.293-1.106.611-1.271,1.106,2.682,1.607,7.709,2.755,14.582,2.407-.837.605-1.704,1.203-1.759,1.857,2.608.513,6.127.385,9.939-.226,3.8-.611,7.88-1.772,11.564-3.17-.226.605-.47,1.216-.226,1.704,3.158-.428,6.714-1.924,10.214-4.038,3.5-2.144,6.934-4.942,9.909-7.801-.037.733.018,1.362.617,1.625.904-.47,1.875-1.24,2.877-2.199,1.002-.947,2.004-2.205,2.993-3.525.983-1.35,1.924-2.883,2.798-4.429.428-.806.837-1.619,1.228-2.425.385-.813.758-1.607,1.081-2.444.489.556,1.014.965,1.68.837,2.358-2.957,3.604-10.269,2.694-17.74.819-.024,1.649-.006,2.437-.983.043-.623-.128-1.588-.477-2.694-.373-1.13-.916-2.389-1.546-3.586-.312-.593-.641-1.173-.983-1.717-.348-.55-.721-1.075-1.075-1.539-.715-.929-1.393-1.637-1.906-2.01-4.166-3.024-10.807-4.539-15.81-4.954-.611-.049-1.527-.006-2.56.055-1.026.061-2.187.134-3.335.208-1.13.067-2.205.122-3.06.189-.892.061-1.576.134-1.894.263.018.611.617,1.106,1.179,1.619-5.174.757-9.359.629-10.581,1.808.189.452.678.898,1.271,1.338"/>
  <path class="st0" d="M45.238,91.557c-3.671,1.002-7.758,2.15-8.931,4.142.214.55.721.855,1.258,1.093-2.047,1.185-4.301,2.505-6.384,4.007-2.102,1.484-4.014,3.164-5.29,5.144.275.47.782.666,1.289.867-2.144,1.814-4.496,3.904-6.671,5.987-2.162,2.083-4.105,4.209-5.296,6.17.428.464,1.301.391,2.156.318-4.117,4.05-6.964,7.685-8.082,10.452.385.324.941.318,1.527.238-2.254,2.205-4.991,5.357-6.286,8.314,0,0,.336-.079.965-.238.629-.147,1.545-.391,2.712-.703,2.327-.648,5.632-1.637,9.524-3.048,3.891-1.411,8.375-3.232,13.049-5.461,4.655-2.248,9.518-4.887,14.13-7.923,4.6-3.042,8.992-6.427,12.713-10.031,3.726-3.592,6.799-7.355,9.041-10.831.281-.434.568-.855.825-1.277.244-.434.483-.855.721-1.265.232-.409.458-.806.678-1.197.22-.385.391-.788.58-1.161.36-.764.727-1.46,1.008-2.132.275-.672.519-1.295.745-1.857.11-.275.22-.544.318-.794.092-.25.165-.495.238-.715.141-.446.263-.825.36-1.136.195-.617.305-.947.305-.947-2.81-.8-5.718-1.289-8.223-1.497-.611-.049-1.527-.006-2.56.055-1.026.061-2.187.134-3.335.208-1.13.067-2.205.122-3.06.189-.892.061-1.576.134-1.894.263.018.611.617,1.106,1.179,1.619-5.174.757-9.359.629-10.581,1.808.189.452.678.898,1.271,1.338"/>
  <path class="st2" d="M53.65,98.281c2.743.709,10.031,2.987,10.819,3.329-2.382,3.317-4.551,6.078-9.42,10.629-1.827-1.558-5.565-3.024-9.615-4.178-7.85-2.181-11.362-2.028-16.097-1.472,5.767-.226,9.786-.086,16.689,2.621,2.45.898,6.06,2.303,7.917,4.026-7.196,6.2-13.262,9.713-13.262,9.713-14.906-5.199-18.443-4.783-22.096-4.325,1.778-.134,3.305-.165,5.04.018,2.56.305,10.086,2.608,15.761,5.095-.996.611-3.195,1.875-6.42,3.58-3.262,1.717-6.622,3.213-6.622,3.213-1.9-.758-6.304-1.851-9.566-1.692-1.533.055-2.908.195-4.405.36,3.702-.269,7.728-.593,13.214,1.674,0,0-.312.153-.88.391-5.62,2.413-10.782,4.392-16.799,6.121-1.014.287-1.851.519-2.45.666-.586.153-.929.238-.929.238,0,0,.373-.085,1.02-.232.654-.147,1.576-.379,2.682-.66,7.086-1.863,13.372-4.197,19.432-6.762.079,1.869-3.17,7.471-10.978,10.77,8.155-3.103,11.851-8.956,11.564-11.027,8.387-3.757,13.525-6.824,14.154-7.233.202,2.107-.293,6.103-2.169,10.159-2.23,4.655-6.94,9.023-10.44,11.185,3.177-1.772,6.408-4.612,8.705-7.324,3.745-4.46,5.571-11.411,5.04-14.716,3.934-2.376,8.864-5.846,12.932-9.456,1.197,3.916,1.576,7.905,1.295,11.344-.672,8.754-4.655,14.02-8.009,18.143,4.838-5.431,9.383-11.656,9.212-22.468-.031-2.456-.434-5.125-1.246-8.131,0,0,5.376-4.753,9.768-11.307,2.877,3.684,3.415,5.4,3.824,7.428,2.114,9.951-2.199,20.086-3.262,23.403,1.637-4.093,3.488-7.575,4.539-15.016.495-3.788.568-8.943-.941-12.377-.66-1.405-2.083-3.8-3.116-5.052.238-.415,2.352-3.952,3.177-6.09,7.844,3.659,10.483,15.217,7.697,25.168,3.372-9.035,2.126-22.609-6.885-27.129.086-.165.984-2.896,1.045-3.067.183-.574.312-1.203.483-1.82.519-2.15.25-.666,1.002-5.034l-2.48-.299c-.819,5.608-1.271,7.184-3.012,11.692-2.7-.666-6.64-1.277-9.298-1.362-3.39-.122-9.615.098-12.743,1.02,3.763-.544,8.907-.208,11.845-.012,4.221.312,6.237,1.02,9.371,2.205,0,0-.935,2.193-3.268,5.877-.935-.434-10.978-2.651-11.833-2.786-5.919-.922-6.439-1.026-7.642-1.106-5.07-.354-6.921.257-7.636.446.721-.134,2.883-.336,6.103-.073,2.376.195,6.927,1.106,9.188,1.692"/>
</svg>