<?xml version="1.0" encoding="UTF-8"?>
<svg id="Layer_3" xmlns="http://www.w3.org/2000/svg" version="1.1" viewBox="0 0 142.155 230.531">
  <!-- Generator: Adobe Illustrator 30.2.1, SVG Export Plug-In . SVG Version: 2.1.1 Build 1)  -->
  <defs>
    <style>
      .st0 {
        fill: #2c6733;
      }

      .st1 {
        fill: #4b8b3f;
      }

      .st2 {
        fill: #82c341;
      }
    </style>
  </defs>
  <path class="st1" d="M79.045,78.722c-5.779.476-12.215,1.042-14.533,3.694.172.87.85,1.478,1.589,1.984-3.4,1.194-7.145,2.54-10.687,4.2-3.562,1.629-6.892,3.603-9.351,6.214.273.779.972,1.215,1.67,1.66-3.704,2.115-7.823,4.585-11.649,7.084-3.826,2.51-7.327,5.141-9.665,7.742.516.82,1.832.941,3.137,1.083-7.297,4.898-12.58,9.544-15.029,13.369.486.587,1.316.739,2.216.789-3.987,2.662-8.967,6.609-11.74,10.667,3.077,3.846,9.129,6.922,14.098,8.43-.951.273-1.822.607-2.206,1.295,3.562,3.158,10.768,6.295,21.142,7.702-1.417.668-2.884,1.316-3.148,2.287,3.755,1.498,9.058,2.297,14.928,2.449,5.86.152,12.286-.435,18.197-1.498-.506.85-1.042,1.69-.82,2.49,4.848.253,10.586-.992,16.415-3.178,5.839-2.216,11.76-5.435,17.023-8.876-.253,1.083-.354,2.044.466,2.591,1.478-.435,3.158-1.326,4.918-2.469,1.771-1.144,3.623-2.743,5.475-4.433,1.852-1.741,3.694-3.775,5.435-5.85.86-1.083,1.71-2.186,2.51-3.279.81-1.103,1.589-2.196,2.307-3.36.577.982,1.245,1.73,2.277,1.73,4.362-3.755,8.278-14.351,9.017-25.787,1.235.192,2.469.455,3.917-.789.243-.911.263-2.409.051-4.159-.243-1.802-.698-3.836-1.306-5.799-.294-.982-.628-1.943-.992-2.854-.364-.911-.779-1.801-1.174-2.601-.81-1.589-1.619-2.834-2.287-3.542-5.374-5.698-14.897-9.827-22.255-11.851-.911-.243-2.297-.445-3.856-.637-1.548-.192-3.309-.415-5.05-.628-1.71-.223-3.33-.435-4.625-.577-1.356-.162-2.399-.243-2.904-.132-.152.911.607,1.822,1.306,2.743-7.955-.314-14.189-1.68-16.345-.263.152.729.769,1.538,1.528,2.358"/>
  <path class="st0" d="M79.045,78.722c-5.779.476-12.215,1.042-14.533,3.694.172.87.85,1.478,1.589,1.984-3.4,1.194-7.145,2.54-10.687,4.2-3.562,1.629-6.892,3.603-9.351,6.214.273.779.972,1.215,1.67,1.66-3.704,2.115-7.823,4.585-11.649,7.084-3.826,2.51-7.327,5.141-9.665,7.742.516.82,1.832.941,3.137,1.083-7.297,4.898-12.58,9.544-15.029,13.369.486.587,1.316.739,2.216.789-3.987,2.662-8.967,6.609-11.74,10.667,0,0,.526-.03,1.508-.081.982-.04,2.429-.152,4.261-.293,3.664-.314,8.886-.87,15.11-1.882,6.214-1.022,13.43-2.479,21.051-4.504,7.601-2.054,15.616-4.645,23.368-7.894,7.742-3.259,15.262-7.084,21.84-11.426,6.588-4.331,12.246-9.098,16.577-13.673.536-.577,1.083-1.123,1.589-1.68.486-.577.961-1.133,1.427-1.68.466-.557.921-1.083,1.356-1.609.435-.516.81-1.073,1.194-1.579.749-1.032,1.498-1.973,2.105-2.894.597-.941,1.144-1.791,1.64-2.571.243-.385.486-.759.698-1.103.212-.354.385-.688.557-1.002.334-.627.627-1.164.86-1.599.465-.87.719-1.326.719-1.326-3.977-1.994-8.188-3.542-11.871-4.554-.911-.243-2.297-.445-3.856-.637-1.548-.192-3.309-.415-5.05-.628-1.71-.223-3.33-.435-4.625-.577-1.356-.162-2.399-.243-2.904-.132-.152.911.607,1.822,1.306,2.743-7.955-.314-14.189-1.68-16.345-.263.152.729.769,1.538,1.528,2.358"/>
  <path class="st2" d="M89.742,91.146c3.896,1.832,14.169,7.287,15.252,8.015-4.504,4.291-8.511,7.823-17.083,13.258-2.287-2.834-7.479-6.082-13.207-8.947-11.143-5.475-16.436-6.224-23.682-6.73,8.704,1.285,14.675,2.631,24.249,8.613,3.4,2.024,8.41,5.141,10.707,8.248-12.509,7.256-22.579,10.809-22.579,10.809-20.828-11.972-26.242-12.337-31.839-12.681,2.702.304,4.989.678,7.53,1.447,3.745,1.174,14.371,6.73,22.154,12.043-1.66.637-5.303,1.913-10.616,3.562-5.354,1.65-10.809,2.945-10.809,2.945-2.621-1.67-8.906-4.544-13.835-5.222-2.318-.344-4.402-.526-6.69-.698,5.617.638,11.73,1.285,19.3,6.224,0,0-.516.132-1.417.334-9.098,2.024-17.377,3.532-26.87,4.433-1.589.142-2.915.253-3.846.314-.921.061-1.457.091-1.457.091,0,0,.577-.02,1.589-.061,1.022-.03,2.469-.132,4.2-.233,11.132-.789,21.182-2.52,30.979-4.666-.415,2.824-6.852,10.292-19.451,13.035,13.066-2.348,20.251-10.07,20.393-13.248,13.612-3.269,22.164-6.406,23.216-6.851-.283,3.218-2.156,9.058-6.103,14.604-4.645,6.335-12.914,11.548-18.763,13.794,5.252-1.751,10.89-5.101,15.09-8.511,6.862-5.617,11.537-15.515,11.669-20.605,6.558-2.449,14.908-6.255,22.002-10.515.698,6.194.152,12.266-1.235,17.336-3.471,12.914-10.91,19.674-17.093,24.896,8.764-6.76,17.326-14.796,20.099-31.029.648-3.684.799-7.793.425-12.509,0,0,9.371-5.597,17.792-14.179,3.269,6.315,3.593,9.037,3.633,12.185.364,15.494-8.936,29.44-11.456,34.106,3.593-5.667,7.347-10.353,11.011-21.192,1.801-5.526,3.37-13.228,2.075-18.784-.597-2.287-2.054-6.275-3.249-8.44.476-.547,4.635-5.242,6.467-8.218,10.707,7.681,11.406,25.716,4.443,39.824,7.59-12.58,9.533-33.236-2.682-42.526.172-.223,2.287-4.058,2.429-4.301.435-.8.81-1.7,1.235-2.581,1.387-3.066.557-.921,2.905-7.256l-3.623-1.144c-2.793,8.167-3.917,10.394-7.783,16.648-3.856-1.751-9.584-3.775-13.531-4.645-5.04-1.133-14.411-2.561-19.36-2.054,5.789.243,13.389,2.196,17.731,3.309,6.224,1.65,9.048,3.269,13.4,5.931,0,0-2.014,3.026-6.538,7.874-1.275-.911-15.687-7.054-16.922-7.489-8.602-3.046-9.341-3.34-11.122-3.805-7.489-1.953-10.434-1.558-11.547-1.467,1.113-.01,4.402.304,9.149,1.599,3.502.951,10.05,3.603,13.268,5.111"/>
</svg>