<?xml version="1.0" encoding="UTF-8"?>
<svg id="Layer_2" xmlns="http://www.w3.org/2000/svg" version="1.1" viewBox="0 0 142.155 230.531">
  <!-- Generator: Adobe Illustrator 30.2.1, SVG Export Plug-In . SVG Version: 2.1.1 Build 1)  -->
  <defs>
    <style>
      .st0 {
        fill: #2c6733;
      }

      .st1 {
        fill: #4b8b3f;
      }

      .st2 {
        fill: #82c341;
      }
    </style>
  </defs>
  <path class="st1" d="M73.83,125.949c-.117,5.036-.283,10.644-2.462,12.786-.77-.105-1.324-.659-1.804-1.274-.868,3.004-1.841,6.322-3.103,9.474-1.231,3.177-2.776,6.162-4.913,8.428-.689-.197-1.102-.782-1.521-1.367-1.65,3.324-3.577,7.012-5.553,10.465-1.982,3.441-4.088,6.612-6.224,8.766-.733-.4-.911-1.539-1.096-2.666-3.884,6.575-7.64,11.389-10.828,13.71-.542-.388-.708-1.102-.8-1.884-2.105,3.595-5.276,8.114-8.655,10.724-3.484-2.475-6.464-7.566-8.027-11.801-.185.843-.431,1.613-1.01,1.982-2.918-2.93-6.002-9.019-7.75-17.945-.505,1.268-.991,2.573-1.822,2.85-1.484-3.177-2.444-7.738-2.875-12.823-.437-5.073-.246-10.675.369-15.852-.702.48-1.41.991-2.112.837-.462-4.192.32-9.228,1.921-14.393,1.631-5.177,4.118-10.478,6.833-15.212-.923.283-1.748.419-2.272-.271.308-1.305.991-2.801,1.902-4.389.893-1.588,2.185-3.281,3.558-4.974,1.422-1.693,3.09-3.392,4.796-5.005.893-.807,1.81-1.588,2.721-2.346.911-.757,1.816-1.484,2.789-2.167-.874-.449-1.564-.997-1.613-1.89,3.041-3.971,12.023-7.904,21.897-9.123-.222-1.059-.517-2.118.492-3.441.782-.252,2.075-.345,3.601-.252,1.57.117,3.361.412,5.091.837.868.209,1.718.456,2.53.714.813.271,1.607.585,2.309.893,1.422.622,2.549,1.262,3.189,1.804,5.214,4.371,9.277,12.417,11.407,18.696.259.776.499,1.964.751,3.306.246,1.336.523,2.85.8,4.346.271,1.471.542,2.869.733,3.989.203,1.164.332,2.069.265,2.512-.788.172-1.613-.437-2.45-.991.677,6.876,2.179,12.207,1.059,14.147-.64-.092-1.373-.579-2.124-1.2"/>
  <path class="st0" d="M73.83,125.949c-.117,5.036-.283,10.644-2.462,12.786-.77-.105-1.324-.659-1.804-1.274-.868,3.004-1.841,6.322-3.103,9.474-1.231,3.177-2.776,6.162-4.913,8.428-.689-.197-1.102-.782-1.521-1.367-1.65,3.324-3.577,7.012-5.553,10.465-1.982,3.441-4.088,6.612-6.224,8.766-.733-.4-.911-1.539-1.096-2.666-3.884,6.575-7.64,11.389-10.828,13.71-.542-.388-.708-1.102-.8-1.884-2.105,3.595-5.276,8.114-8.655,10.724v-.006s0-.455-.006-1.311c-.012-.85.012-2.105.037-3.706.086-3.189.302-7.75.874-13.192.566-5.448,1.465-11.777,2.832-18.48,1.397-6.698,3.238-13.777,5.657-20.666,2.432-6.876,5.374-13.592,8.803-19.515,3.423-5.928,7.27-11.075,11.019-15.064.468-.499.911-.997,1.373-1.465.474-.449.936-.893,1.385-1.324.456-.431.893-.85,1.324-1.256.425-.406.886-.751,1.305-1.114.862-.702,1.644-1.397,2.413-1.976.776-.56,1.496-1.077,2.142-1.545.32-.234.628-.456.917-.665.295-.197.585-.363.843-.529.529-.326.979-.603,1.342-.831.726-.449,1.114-.69,1.114-.69,1.933,3.349,3.484,6.926,4.549,10.065.259.776.499,1.964.751,3.306.246,1.336.523,2.85.8,4.346.271,1.471.542,2.869.733,3.989.203,1.164.332,2.069.265,2.512-.788.172-1.613-.437-2.45-.991.677,6.876,2.179,12.207,1.059,14.147-.64-.092-1.373-.579-2.124-1.2"/>
  <path class="st2" d="M62.516,117.304c-1.785-3.287-7.036-11.912-7.726-12.817-3.49,4.118-6.347,7.775-10.625,15.482,2.573,1.847,5.651,6.175,8.428,10.995,5.307,9.382,6.23,13.937,7.03,20.192-1.551-7.473-3.023-12.583-8.692-20.58-1.933-2.856-4.888-7.036-7.695-8.871-5.657,11.216-8.231,20.124-8.231,20.124,11.438,17.452,12.029,22.131,12.608,26.964-.394-2.321-.837-4.291-1.631-6.458-1.213-3.189-6.568-12.115-11.567-18.597-.462,1.471-1.391,4.691-2.549,9.382-1.157,4.728-2.007,9.523-2.007,9.523,1.582,2.198,4.389,7.492,5.233,11.733.412,1.988.677,3.792.942,5.762-.837-4.833-1.705-10.102-6.371-16.418,0,0-.092.456-.222,1.25-1.293,7.991-2.185,15.242-2.481,23.516-.043,1.391-.074,2.542-.074,3.355-.006.806-.012,1.268-.012,1.268,0,0-.006-.505-.025-1.385-.025-.88-.012-2.142-.012-3.651.123-9.69,1.114-18.493,2.475-27.099-2.425.505-8.575,6.464-10.318,17.532,1.379-11.45,7.707-18.068,10.453-18.357,2.148-11.967,4.439-19.539,4.765-20.475-2.776.412-7.744,2.327-12.349,6.033-5.257,4.346-9.357,11.783-11.013,16.966,1.256-4.642,3.872-9.696,6.618-13.512,4.525-6.23,12.866-10.792,17.274-11.167,1.791-5.811,4.672-13.242,7.997-19.607-5.399-.289-10.638.492-14.965,1.951-11.019,3.663-16.504,10.453-20.721,16.08,5.424-7.941,11.955-15.772,25.886-18.998,3.164-.745,6.716-1.09,10.828-1.003,0,0,4.383-8.409,11.395-16.141-5.645-2.518-8.021-2.653-10.755-2.536-13.451.468-25.074,9.24-28.989,11.66,4.728-3.404,8.606-6.889,17.816-10.619,4.697-1.847,11.296-3.589,16.184-2.746,2.013.4,5.54,1.459,7.48,2.382.449-.437,4.315-4.278,6.796-6.014-7.203-8.902-22.87-8.594-34.757-1.847,10.521-7.209,28.336-9.948,37.01.172.185-.16,3.398-2.185,3.607-2.315.671-.425,1.44-.794,2.179-1.2,2.592-1.36.77-.536,6.138-2.893l1.176,3.084c-6.938,2.838-8.809,3.921-14.042,7.59,1.718,3.256,3.761,8.12,4.716,11.499,1.244,4.315,2.949,12.368,2.764,16.677-.505-4.999-2.579-11.493-3.767-15.205-1.748-5.313-3.3-7.677-5.817-11.315,0,0-2.524,1.902-6.501,6.064.856,1.065,6.907,13.248,7.356,14.3,3.072,7.295,3.367,7.929,3.86,9.45,2.068,6.39,1.884,8.963,1.859,9.942-.049-.966-.486-3.811-1.853-7.855-1.003-2.986-3.632-8.532-5.103-11.247"/>
  <path class="st1" d="M59.143,76.523c-.172-2.77-.345-5.861.751-7.141.431.019.763.302,1.053.616.332-1.693.714-3.558,1.262-5.35.523-1.804,1.237-3.515,2.302-4.863.388.08.646.382.899.683.751-1.902,1.638-4.026,2.561-6.014.93-1.982,1.939-3.823,3.004-5.103.425.185.579.8.733,1.41,1.822-3.792,3.663-6.618,5.307-8.04.314.191.437.573.523.997.991-2.075,2.524-4.703,4.254-6.298,2.031,1.194,3.909,3.854,4.962,6.107.068-.468.166-.905.468-1.133,1.736,1.471,3.718,4.672,5.097,9.493.215-.72.425-1.459.868-1.65.967,1.674,1.705,4.137,2.179,6.907.48,2.77.634,5.854.542,8.729.363-.302.726-.609,1.12-.56.449,2.284.259,5.085-.382,7.997-.653,2.924-1.773,5.947-3.041,8.68.499-.197.942-.314,1.262.043-.105.733-.412,1.582-.837,2.499-.419.917-1.047,1.908-1.724,2.9-.702.997-1.539,2.007-2.401,2.973-.449.486-.917.96-1.385,1.416-.462.462-.93.905-1.428,1.324.499.209.905.474.973.96-1.484,2.327-6.23,4.913-11.604,6.039.179.572.388,1.139-.105,1.914-.419.179-1.127.289-1.97.308-.868.012-1.865-.068-2.838-.222-.486-.074-.96-.166-1.416-.271-.462-.111-.911-.246-1.317-.382-.806-.277-1.459-.573-1.835-.843-3.066-2.155-5.676-6.384-7.141-9.739-.179-.412-.369-1.053-.566-1.779-.197-.72-.425-1.545-.646-2.352-.222-.794-.431-1.551-.591-2.155-.166-.628-.277-1.12-.259-1.367.425-.135.905.166,1.391.431-.696-3.749-1.773-6.605-1.244-7.726.351.019.776.252,1.219.56"/>
  <path class="st0" d="M59.143,76.523c-.172-2.77-.345-5.861.751-7.141.431.019.763.302,1.053.616.332-1.693.714-3.558,1.262-5.35.523-1.804,1.237-3.515,2.302-4.863.388.08.646.382.899.683.751-1.902,1.638-4.026,2.561-6.014.93-1.982,1.939-3.823,3.004-5.103.425.185.579.8.733,1.41,1.822-3.792,3.663-6.618,5.307-8.04.314.191.437.573.523.997.991-2.075,2.524-4.703,4.254-6.298,0,0,.025.252.068.72.043.474.092,1.163.154,2.038.098,1.761.197,4.278.135,7.295-.055,3.016-.252,6.538-.689,10.287-.449,3.743-1.127,7.72-2.136,11.617-1.016,3.891-2.315,7.72-3.921,11.136-1.601,3.417-3.472,6.427-5.35,8.791-.234.295-.456.591-.683.868-.24.271-.474.536-.702.794-.228.259-.449.505-.665.751-.215.246-.456.456-.665.677-.443.425-.837.843-1.231,1.194-.406.351-.776.665-1.108.954-.166.142-.326.277-.474.406-.148.123-.302.228-.437.332-.277.203-.511.376-.696.517-.382.283-.585.431-.585.431-1.219-1.748-2.241-3.638-2.967-5.319-.179-.412-.369-1.053-.566-1.779-.197-.72-.425-1.545-.646-2.352-.222-.794-.431-1.551-.591-2.155-.166-.628-.277-1.12-.259-1.367.425-.135.905.166,1.391.431-.696-3.749-1.773-6.605-1.244-7.726.351.019.776.252,1.219.56"/>
  <path class="st2" d="M65.765,80.742c1.133,1.724,4.426,6.218,4.845,6.679,1.73-2.426,3.121-4.568,5.116-9.006-1.502-.893-3.398-3.127-5.146-5.645-3.361-4.906-4.081-7.363-4.814-10.761,1.207,4.032,2.253,6.772,5.744,10.896,1.194,1.477,3.016,3.638,4.642,4.512,2.579-6.427,3.577-11.438,3.577-11.438-7.098-9.056-7.646-11.598-8.188-14.227.326,1.256.659,2.321,1.2,3.472.813,1.693,4.174,6.347,7.227,9.677.185-.831.542-2.647.96-5.276.412-2.653.653-5.325.653-5.325-.973-1.133-2.764-3.915-3.423-6.199-.32-1.077-.554-2.056-.788-3.127.683,2.616,1.41,5.473,4.272,8.723,0,0,.031-.252.062-.696.339-4.451.486-8.477.259-13.038-.037-.763-.074-1.397-.117-1.847-.031-.443-.049-.696-.049-.696,0,0,.025.277.074.757.055.486.111,1.176.179,2.007.388,5.331.259,10.213-.086,15.002,1.305-.388,4.408-3.952,4.845-10.114-.222,6.359-3.386,10.293-4.882,10.576-.616,6.673-1.521,10.945-1.656,11.475,1.502-.357,4.143-1.644,6.501-3.897,2.684-2.635,4.586-6.913,5.251-9.837-.468,2.61-1.668,5.51-2.998,7.738-2.192,3.632-6.562,6.532-8.969,6.944-.708,3.275-1.945,7.492-3.472,11.149,2.98-.099,5.824-.776,8.132-1.779,5.879-2.53,8.575-6.513,10.631-9.807-2.61,4.623-5.83,9.228-13.334,11.653-1.705.56-3.638.911-5.904,1.059,0,0-2.013,4.826-5.504,9.406,3.22,1.114,4.531,1.077,6.027.886,7.369-.886,13.346-6.248,15.384-7.763-2.438,2.087-4.408,4.186-9.289,6.667-2.499,1.231-6.039,2.499-8.766,2.272-1.12-.129-3.109-.548-4.217-.96-.228.259-2.173,2.555-3.454,3.626,4.377,4.549,12.965,3.644,19.182-.622-5.442,4.457-15.101,6.796-20.346,1.644-.092.092-1.761,1.361-1.871,1.441-.345.265-.751.505-1.139.763-1.36.868-.4.326-3.238,1.878l-.788-1.638c3.675-1.89,4.654-2.573,7.356-4.833-1.096-1.705-2.45-4.285-3.127-6.094-.886-2.315-2.204-6.661-2.302-9.037.511,2.727,1.958,6.199,2.783,8.181,1.207,2.832,2.173,4.057,3.724,5.941,0,0,1.299-1.163,3.287-3.638-.517-.542-4.414-6.95-4.709-7.51-2.031-3.866-2.222-4.198-2.567-5.011-1.434-3.41-1.453-4.832-1.484-5.374.068.529.443,2.068,1.385,4.229.689,1.594,2.395,4.518,3.33,5.941"/>
  <path class="st1" d="M97.31,91.196c3.731,1.022,7.88,2.185,9.068,4.205-.215.554-.733.868-1.28,1.108,2.081,1.207,4.371,2.542,6.482,4.069,2.136,1.508,4.075,3.213,5.368,5.226-.277.48-.788.677-1.305.874,2.173,1.847,4.568,3.971,6.772,6.082,2.198,2.118,4.168,4.272,5.38,6.261-.437.474-1.324.4-2.192.326,4.18,4.112,7.067,7.8,8.206,10.613-.388.326-.954.32-1.551.24,2.29,2.241,5.066,5.442,6.384,8.44-2.493,2.142-6.839,3.41-10.281,3.792.591.296,1.12.622,1.287,1.12-2.727,1.631-7.83,2.801-14.805,2.45.85.609,1.73,1.213,1.785,1.884-2.641.517-6.218.388-10.084-.234-3.866-.622-8.003-1.798-11.746-3.22.228.616.474,1.231.228,1.73-3.207-.431-6.815-1.951-10.367-4.1-3.552-2.179-7.036-5.011-10.065-7.917.037.745-.012,1.385-.622,1.644-.917-.468-1.902-1.256-2.918-2.228-1.022-.96-2.044-2.241-3.047-3.577-.997-1.373-1.951-2.93-2.838-4.5-.437-.819-.85-1.644-1.244-2.462s-.77-1.631-1.096-2.481c-.499.566-1.034.979-1.711.85-2.389-2.998-3.657-10.422-2.733-18.006-.831-.031-1.674-.006-2.469-1.003-.049-.628.123-1.607.474-2.733.382-1.145.936-2.425,1.57-3.638.32-.603.659-1.194,1.003-1.748.351-.554.733-1.09,1.09-1.558.726-.942,1.416-1.662,1.933-2.038,4.229-3.078,10.976-4.611,16.049-5.029.628-.049,1.557-.012,2.604.049,1.04.068,2.222.142,3.386.209,1.151.068,2.241.129,3.109.197.905.062,1.601.135,1.921.271-.018.616-.628,1.12-1.194,1.638,5.251.77,9.499.64,10.736,1.835-.185.462-.683.917-1.287,1.36"/>
  <path class="st0" d="M97.31,91.196c3.731,1.022,7.88,2.185,9.068,4.205-.215.554-.733.868-1.28,1.108,2.081,1.207,4.371,2.542,6.482,4.069,2.136,1.508,4.075,3.213,5.368,5.226-.277.48-.788.677-1.305.874,2.173,1.847,4.568,3.971,6.772,6.082,2.198,2.118,4.168,4.272,5.38,6.261-.437.474-1.324.4-2.192.326,4.18,4.112,7.067,7.8,8.206,10.613-.388.326-.954.32-1.551.24,2.29,2.241,5.066,5.442,6.384,8.44,0,0-.345-.08-.979-.24-.64-.148-1.57-.394-2.758-.714-2.358-.653-5.719-1.662-9.671-3.097-3.952-1.434-8.502-3.275-13.242-5.54-4.728-2.284-9.665-4.962-14.35-8.046-4.672-3.09-9.129-6.525-12.903-10.182-3.786-3.644-6.907-7.467-9.185-11.001-.283-.437-.573-.868-.837-1.293-.246-.437-.486-.868-.726-1.28-.234-.419-.468-.825-.689-1.219-.222-.394-.394-.8-.591-1.182-.363-.77-.733-1.477-1.022-2.161-.277-.683-.529-1.317-.757-1.884-.111-.283-.222-.554-.326-.807-.092-.259-.16-.505-.234-.726-.148-.455-.271-.843-.369-1.157-.203-.622-.308-.954-.308-.954,2.85-.819,5.805-1.317,8.341-1.521.628-.049,1.557-.012,2.604.049,1.04.068,2.222.142,3.386.209,1.151.068,2.241.129,3.109.197.905.062,1.601.135,1.921.271-.018.616-.628,1.12-1.194,1.638,5.251.77,9.499.64,10.736,1.835-.185.462-.683.917-1.287,1.36"/>
  <path class="st2" d="M88.77,98.023c-2.783.72-10.182,3.035-10.982,3.38,2.419,3.367,4.617,6.168,9.56,10.792,1.853-1.582,5.651-3.072,9.763-4.241,7.972-2.216,11.536-2.062,16.344-1.496-5.861-.228-9.936-.08-16.948,2.659-2.481.911-6.15,2.339-8.034,4.094,7.307,6.291,13.463,9.862,13.463,9.862,15.132-5.288,18.727-4.857,22.433-4.395-1.804-.135-3.355-.166-5.116.019-2.598.314-10.244,2.647-16.006,5.171,1.016.616,3.244,1.908,6.525,3.638,3.306,1.742,6.722,3.263,6.722,3.263,1.927-.776,6.396-1.884,9.708-1.724,1.558.062,2.955.197,4.469.369-3.755-.271-7.843-.603-13.414,1.699,0,0,.32.154.893.394,5.707,2.45,10.952,4.457,17.058,6.218,1.028.289,1.884.523,2.487.677.597.154.942.24.942.24,0,0-.376-.086-1.034-.24-.665-.142-1.601-.382-2.727-.665-7.19-1.89-13.568-4.26-19.73-6.87-.074,1.902,3.226,7.584,11.149,10.939-8.274-3.152-12.035-9.093-11.74-11.192-8.514-3.823-13.728-6.932-14.368-7.35-.209,2.148.296,6.199,2.204,10.317,2.259,4.728,7.042,9.16,10.601,11.352-3.226-1.791-6.513-4.679-8.846-7.43-3.804-4.531-5.651-11.592-5.116-14.941-3.995-2.413-8.994-5.941-13.125-9.604-1.219,3.977-1.607,8.021-1.317,11.518.683,8.889,4.722,14.233,8.132,18.419-4.913-5.51-9.53-11.832-9.351-22.814.031-2.493.437-5.202,1.262-8.249,0,0-5.454-4.826-9.917-11.487-2.918,3.743-3.466,5.485-3.884,7.547-2.142,10.102,2.235,20.395,3.312,23.762-1.656-4.155-3.534-7.695-4.605-15.248-.505-3.841-.579-9.08.954-12.564.671-1.428,2.118-3.86,3.164-5.134-.246-.412-2.389-4.007-3.226-6.181-7.966,3.718-10.644,15.452-7.818,25.554-3.423-9.172-2.155-22.956,6.993-27.542-.086-.166-.997-2.936-1.059-3.115-.191-.579-.32-1.219-.492-1.847-.529-2.179-.252-.671-1.016-5.11l2.518-.302c.831,5.694,1.287,7.289,3.053,11.869,2.746-.677,6.747-1.299,9.437-1.379,3.447-.129,9.77.092,12.946,1.034-3.823-.554-9.049-.215-12.029-.018-4.285.32-6.335,1.034-9.511,2.241,0,0,.948,2.228,3.312,5.965.948-.443,11.149-2.69,12.017-2.826,6.008-.942,6.532-1.04,7.757-1.127,5.146-.357,7.03.259,7.75.456-.726-.135-2.924-.339-6.193-.074-2.413.197-7.03,1.127-9.326,1.718"/>
</svg>