<?xml version="1.0" encoding="UTF-8"?>
<svg id="Layer_2" xmlns="http://www.w3.org/2000/svg" version="1.1" viewBox="0 0 142.155 230.531">
  <!-- Generator: Adobe Illustrator 30.2.1, SVG Export Plug-In . SVG Version: 2.1.1 Build 1)  -->
  <defs>
    <style>
      .st0 {
        fill: #2c6733;
      }

      .st1 {
        fill: #4b8b3f;
      }

      .st2 {
        fill: #82c341;
      }
    </style>
  </defs>
  <path class="st1" d="M62.644,113.369c-4.341-.101-9.181-.177-11.115,1.613.051.667.507,1.166,1.022,1.605-2.627.625-5.524,1.335-8.286,2.297-2.787.938-5.422,2.154-7.466,3.902.152.608.633.98,1.123,1.368-2.931,1.284-6.191,2.804-9.24,4.367-3.049,1.571-5.862,3.26-7.804,5.017.313.65,1.292.853,2.255,1.056-5.828,3.083-10.127,6.123-12.247,8.784.313.481.921.65,1.588.76-3.184,1.672-7.204,4.231-9.586,7.036,1.993,3.108,6.267,5.87,9.857,7.39-.735.127-1.41.304-1.748.794,2.407,2.627,7.534,5.532,15.152,7.39-1.106.388-2.255.752-2.525,1.461,2.677,1.402,6.571,2.416,10.938,2.982,4.358.583,9.189.642,13.683.313-.448.591-.912,1.174-.811,1.791,3.598.566,7.965.084,12.483-1.081,4.527-1.208,9.198-3.142,13.387-5.296-.279.794-.431,1.495.135,1.976,1.14-.22,2.458-.743,3.868-1.461,1.402-.709,2.914-1.757,4.426-2.88,1.512-1.157,3.041-2.525,4.502-3.927.735-.743,1.444-1.495,2.128-2.255.693-.76,1.351-1.512,1.985-2.323.355.777.794,1.394,1.563,1.47,3.539-2.458,7.289-10.051,8.733-18.514.904.236,1.808.532,2.982-.287.253-.659.38-1.774.363-3.091-.042-1.36-.228-2.914-.524-4.426-.144-.752-.321-1.495-.515-2.204-.194-.709-.439-1.411-.676-2.027-.473-1.25-.98-2.247-1.427-2.821-3.564-4.671-10.33-8.488-15.659-10.575-.659-.253-1.672-.507-2.821-.777-1.14-.262-2.441-.566-3.716-.862-1.258-.296-2.449-.583-3.404-.786-.997-.228-1.774-.372-2.154-.329-.186.667.313,1.402.752,2.145-5.904-.853-10.431-2.356-12.154-1.47.059.557.448,1.199.954,1.875"/>
  <path class="st0" d="M62.644,113.369c-4.341-.101-9.181-.177-11.115,1.613.051.667.507,1.166,1.022,1.605-2.627.625-5.524,1.335-8.286,2.297-2.787.938-5.422,2.154-7.466,3.902.152.608.633.98,1.123,1.368-2.931,1.284-6.191,2.804-9.24,4.367-3.049,1.571-5.862,3.26-7.804,5.017.313.65,1.292.853,2.255,1.056-5.828,3.083-10.127,6.123-12.247,8.784.313.481.921.65,1.588.76-3.184,1.672-7.204,4.231-9.586,7.036l.008.009s.389.017,1.123.051c.735.051,1.824.076,3.201.118,2.753.051,6.689.051,11.411-.228,4.713-.279,10.203-.802,16.039-1.706,5.828-.946,12.002-2.247,18.032-4.054,6.031-1.833,11.934-4.096,17.171-6.816,5.245-2.711,9.831-5.828,13.421-8.902.448-.38.895-.743,1.318-1.123.405-.389.811-.769,1.199-1.149.389-.372.76-.735,1.132-1.081.372-.355.684-.735,1.013-1.09.642-.709,1.267-1.351,1.799-1.993.515-.65.988-1.25,1.419-1.79.211-.262.414-.524.608-.76.186-.245.338-.49.49-.709.304-.439.558-.819.769-1.123.414-.608.642-.937.642-.937-2.813-1.791-5.836-3.277-8.497-4.316-.659-.253-1.672-.507-2.821-.777-1.14-.262-2.441-.566-3.716-.862-1.258-.296-2.449-.583-3.404-.786-.997-.228-1.774-.372-2.154-.329-.186.667.313,1.402.752,2.145-5.904-.853-10.431-2.356-12.154-1.47.059.557.448,1.199.954,1.875"/>
  <path class="st2" d="M69.647,123.464c2.762,1.672,9.992,6.537,10.743,7.171-3.691,2.846-6.96,5.161-13.767,8.547-1.486-2.297-5.101-5.127-9.147-7.703-7.872-4.949-11.765-5.929-17.12-6.867,6.377,1.63,10.727,3.1,17.391,8.311,2.382,1.782,5.87,4.493,7.34,6.985-9.89,4.426-17.669,6.292-17.669,6.292-14.595-10.549-18.598-11.242-22.745-11.934,1.993.431,3.666.895,5.507,1.664,2.694,1.166,10.178,6.14,15.566,10.71-1.284.338-4.096,1.005-8.184,1.824-4.122.811-8.294,1.351-8.294,1.351-1.824-1.453-6.284-4.088-9.899-4.975-1.698-.439-3.243-.735-4.933-1.047,4.13.912,8.64,1.875,13.894,6.149,0,0-.389.059-1.081.135-6.934.802-13.227,1.284-20.372,1.208-1.191-.017-2.187-.034-2.889-.068-.693-.025-1.098-.042-1.098-.042,0,0,.439.025,1.199.076.752.059,1.841.101,3.142.152,8.353.279,15.98-.22,23.455-1.047-.532,2.069-5.912,7.128-15.524,8.193,9.933-.735,15.887-5.921,16.242-8.277,10.397-1.377,17.019-3.057,17.838-3.294-.464,2.373-2.314,6.58-5.693,10.397-3.953,4.358-10.524,7.601-15.059,8.818,4.046-.895,8.514-2.948,11.909-5.161,5.549-3.657,9.814-10.659,10.313-14.443,5.076-1.318,11.597-3.505,17.222-6.123.034,4.671-.853,9.156-2.28,12.83-3.598,9.35-9.662,13.809-14.679,17.222,7.061-4.358,14.063-9.679,17.399-21.563.769-2.694,1.208-5.743,1.292-9.291,0,0,7.424-3.446,14.367-9.181,1.943,4.966,1.968,7.019,1.765,9.367-.938,11.571-8.961,21.25-11.208,24.527,3.125-3.944,6.284-7.145,9.865-14.933,1.774-3.978,3.539-9.595,3.007-13.843-.27-1.748-1.039-4.831-1.757-6.537.397-.372,3.86-3.556,5.456-5.625,7.382,6.563,6.495,20.059.211,30.026,6.63-8.776,9.696-24.021,1.318-31.901.144-.152,2.019-2.846,2.145-3.015.389-.566.735-1.208,1.115-1.833,1.275-2.179.49-.642,2.737-5.178l-2.61-1.132c-2.72,5.862-3.733,7.433-7.103,11.799-2.736-1.613-6.85-3.564-9.721-4.519-3.666-1.241-10.541-3.032-14.265-3.049,4.291.633,9.806,2.686,12.956,3.851,4.51,1.715,6.487,3.15,9.527,5.465,0,0-1.748,2.103-5.49,5.363-.878-.777-11.14-6.478-12.036-6.909-6.166-2.939-6.698-3.218-7.99-3.699-5.422-2.044-7.652-1.976-8.488-2.002.828.085,3.26.574,6.689,1.909,2.534.988,7.213,3.471,9.493,4.848"/>
  <path class="st1" d="M104.664,127.991c2.382.262,5.034.532,6.182-.363,0-.372-.228-.667-.49-.929,1.478-.228,3.1-.481,4.662-.878,1.579-.38,3.083-.929,4.282-1.79-.051-.338-.296-.574-.549-.802,1.672-.574,3.53-1.25,5.279-1.968,1.748-.718,3.378-1.52,4.527-2.39-.144-.372-.667-.532-1.191-.684,3.345-1.419,5.853-2.897,7.145-4.257-.152-.279-.481-.397-.845-.49,1.833-.768,4.155-1.985,5.6-3.421-.954-1.799-3.167-3.514-5.068-4.519.405-.034.786-.101.997-.355-1.199-1.554-3.877-3.387-7.982-4.772.633-.16,1.275-.304,1.461-.676-1.411-.904-3.497-1.639-5.87-2.162-2.365-.515-5.025-.777-7.5-.811.27-.296.549-.6.524-.946-1.951-.473-4.375-.422-6.909.017-2.542.448-5.194,1.292-7.601,2.272.194-.414.304-.794.017-1.09-.633.068-1.385.296-2.188.625-.811.321-1.689.828-2.568,1.368-.887.566-1.799,1.25-2.661,1.951-.439.372-.861.752-1.275,1.14-.414.38-.819.769-1.199,1.183-.16-.439-.372-.802-.786-.878-2.061,1.182-4.485,5.177-5.667,9.764-.49-.177-.971-.38-1.655.017-.169.346-.296.954-.346,1.681-.042.743-.009,1.613.076,2.449.051.422.11.845.186,1.241.076.397.177.794.279,1.14.203.709.431,1.284.65,1.622,1.74,2.728,5.279,5.144,8.108,6.537.346.177.895.363,1.512.566.617.194,1.309.422,2.002.642.676.228,1.318.439,1.833.6.541.169.954.287,1.166.279.135-.363-.101-.786-.313-1.216,3.201.752,5.625,1.79,6.605,1.377,0-.304-.186-.684-.431-1.073"/>
  <path class="st0" d="M104.664,127.991c2.382.262,5.034.532,6.182-.363,0-.372-.228-.667-.49-.929,1.478-.228,3.1-.481,4.662-.878,1.579-.38,3.083-.929,4.282-1.79-.051-.338-.296-.574-.549-.802,1.672-.574,3.53-1.25,5.279-1.968,1.748-.718,3.378-1.52,4.527-2.39-.144-.372-.667-.532-1.191-.684,3.345-1.419,5.853-2.897,7.145-4.257-.152-.279-.481-.397-.845-.49,1.833-.768,4.155-1.985,5.6-3.421,0,0-.22-.025-.617-.084-.405-.059-.997-.127-1.757-.211-1.512-.161-3.674-.338-6.275-.405-2.601-.076-5.65-.042-8.894.186-3.243.236-6.698.667-10.102,1.377-3.395.726-6.749,1.689-9.755,2.939-3.007,1.241-5.676,2.736-7.787,4.257-.262.194-.532.372-.777.557-.245.194-.481.389-.709.574-.228.186-.456.372-.676.549-.22.177-.414.372-.608.541-.38.363-.76.693-1.081,1.013-.313.338-.6.642-.862.921-.135.135-.253.27-.372.389-.11.127-.211.253-.304.363-.186.236-.346.431-.473.583-.253.321-.397.481-.397.481,1.461,1.123,3.049,2.078,4.468,2.77.346.177.895.363,1.512.566.617.194,1.309.422,2.002.642.676.228,1.318.439,1.833.6.541.169.954.287,1.166.279.135-.363-.101-.786-.313-1.216,3.201.752,5.625,1.79,6.605,1.377,0-.304-.186-.684-.431-1.073"/>
  <path class="st2" d="M101.29,122.116c-1.444-1.047-5.186-4.063-5.566-4.443,2.162-1.394,4.063-2.508,7.965-4.046.709,1.326,2.559,3.049,4.662,4.654,4.096,3.091,6.182,3.809,9.088,4.578-3.429-1.199-5.752-2.204-9.164-5.38-1.233-1.09-3.015-2.745-3.708-4.181,5.642-1.968,10-2.635,10-2.635,7.525,6.487,9.696,7.053,11.934,7.627-1.064-.329-1.968-.659-2.939-1.174-1.427-.769-5.304-3.851-8.058-6.613.726-.127,2.306-.363,4.586-.617,2.306-.253,4.62-.355,4.62-.355.938.887,3.26,2.542,5.203,3.201.912.321,1.748.557,2.66.802-2.221-.693-4.654-1.436-7.34-4.029,0,0,.219-.017.6-.025,3.843-.11,7.323-.084,11.25.296.65.059,1.199.118,1.579.169.38.051.6.076.6.076,0,0-.236-.034-.65-.101-.414-.059-1.005-.135-1.723-.228-4.578-.549-8.792-.625-12.931-.524.388-1.106,3.581-3.64,8.911-3.775-5.49-.059-9.003,2.508-9.316,3.792-5.777.27-9.485.878-9.95.971.372-1.284,1.58-3.505,3.615-5.448,2.373-2.213,6.14-3.682,8.691-4.139-2.272.304-4.823,1.225-6.791,2.28-3.218,1.748-5.887,5.397-6.343,7.449-2.846.481-6.537,1.385-9.747,2.551.203-2.559.895-4.983,1.858-6.934,2.407-4.975,5.955-7.137,8.868-8.776-4.079,2.061-8.184,4.662-10.575,11.031-.549,1.444-.929,3.1-1.14,5.042,0,0-4.24,1.546-8.328,4.375-.836-2.821-.752-3.953-.524-5.237,1.056-6.309,5.921-11.25,7.306-12.948-1.9,2.019-3.792,3.632-6.123,7.745-1.157,2.103-2.39,5.101-2.297,7.466.059.971.338,2.703.659,3.674-.236.186-2.289,1.765-3.26,2.829-3.75-3.953-2.635-11.318,1.292-16.504-4.054,4.51-6.461,12.745-2.221,17.467-.093.076-1.25,1.461-1.318,1.554-.245.287-.465.634-.709.954-.802,1.132-.296.329-1.74,2.711l1.377.752c1.774-3.1,2.399-3.911,4.46-6.149,1.427,1.013,3.598,2.272,5.127,2.939,1.959.853,5.65,2.154,7.694,2.34-2.323-.549-5.262-1.934-6.934-2.72-2.399-1.157-3.412-2.035-4.975-3.454,0,0,1.056-1.073,3.26-2.686.448.465,5.819,4.079,6.292,4.358,3.252,1.9,3.53,2.086,4.215,2.407,2.889,1.377,4.113,1.444,4.569,1.495-.448-.085-1.757-.465-3.581-1.36-1.351-.659-3.801-2.247-4.992-3.108"/>
  <path class="st1" d="M93.532,94.509c-.735-3.252-1.571-6.875-3.269-7.982-.481.161-.769.6-1.005,1.056-.954-1.833-2.019-3.86-3.243-5.743-1.216-1.909-2.61-3.64-4.291-4.84-.422.22-.617.659-.811,1.09-1.503-1.943-3.243-4.088-4.975-6.073-1.731-1.985-3.514-3.767-5.186-4.89-.422.363-.388,1.123-.363,1.875-3.378-3.767-6.444-6.402-8.818-7.492-.304.321-.321.811-.27,1.326-1.841-2.061-4.493-4.578-7.027-5.836-1.943,2.061-3.21,5.76-3.674,8.716-.228-.524-.49-.997-.912-1.157-1.512,2.28-2.728,6.639-2.694,12.661-.498-.76-.988-1.537-1.563-1.613-.549,2.255-.574,5.346-.194,8.7.38,3.362,1.233,6.968,2.306,10.253-.515-.22-1.047-.456-1.486-.27.253,2.787,1.419,5.955,3.125,9.105,1.74,3.15,4.046,6.267,6.427,8.987-.642-.059-1.191-.042-1.444.473.372.811,1.013,1.689,1.807,2.601.786.921,1.85,1.85,2.965,2.77,1.14.912,2.449,1.799,3.767,2.627.684.405,1.377.794,2.069,1.166.693.372,1.377.735,2.095,1.047-.507.405-.887.853-.802,1.436,2.492,2.188,8.843,3.573,15.414,3.074-.008.718-.059,1.444.769,2.171.541.068,1.394-.042,2.373-.304,1.005-.279,2.128-.709,3.201-1.208.532-.253,1.056-.515,1.546-.794s.963-.591,1.385-.878c.836-.591,1.486-1.149,1.833-1.588,2.821-3.522,4.409-9.274,4.975-13.632.068-.541.068-1.343.059-2.247-.017-.895-.034-1.917-.051-2.922-.008-.997-.017-1.934-.042-2.686-.017-.786-.051-1.394-.152-1.672-.541-.009-.997.498-1.461.971-.456-4.561-.177-8.218-1.157-9.333-.405.144-.819.557-1.225,1.056"/>
  <path class="st0" d="M93.532,94.509c-.735-3.252-1.571-6.875-3.269-7.982-.481.161-.769.6-1.005,1.056-.954-1.833-2.019-3.86-3.243-5.743-1.216-1.909-2.61-3.64-4.291-4.84-.422.22-.617.659-.811,1.09-1.503-1.943-3.243-4.088-4.975-6.073-1.731-1.985-3.514-3.767-5.186-4.89-.422.363-.388,1.123-.363,1.875-3.378-3.767-6.444-6.402-8.818-7.492-.304.321-.321.811-.27,1.326-1.841-2.061-4.493-4.578-7.027-5.836,0,0,.059.296.169.853.101.557.279,1.368.507,2.407.473,2.061,1.208,4.992,2.289,8.454,1.081,3.463,2.483,7.458,4.248,11.639,1.782,4.164,3.894,8.522,6.368,12.686,2.475,4.147,5.262,8.125,8.26,11.529,2.99,3.404,6.166,6.242,9.113,8.345.372.262.726.532,1.09.777.363.228.726.456,1.073.676s.693.439,1.022.642c.329.211.676.38.997.557.65.346,1.242.693,1.816.971.583.262,1.115.507,1.596.726.245.11.473.211.684.313.22.084.431.16.617.228.388.144.718.27.98.363.532.203.819.304.819.304.811-2.424,1.36-4.949,1.639-7.129.068-.541.068-1.343.059-2.247-.017-.895-.034-1.917-.051-2.922-.008-.997-.017-1.934-.042-2.686-.017-.786-.051-1.394-.152-1.672-.541-.009-.997.498-1.461.971-.456-4.561-.177-8.218-1.157-9.333-.405.144-.819.557-1.225,1.056"/>
  <path class="st2" d="M87.309,101.6c-.726,2.373-3.015,8.657-3.345,9.333-2.813-2.221-5.135-4.223-8.928-8.674,1.436-1.529,2.872-4.747,4.046-8.243,2.23-6.782,2.23-9.857,1.934-14.029-.034,5.059-.321,8.564-2.965,14.502-.878,2.103-2.255,5.211-3.843,6.765-5.135-6.546-7.965-12.002-7.965-12.002,5.152-12.83,4.933-15.946,4.671-19.156.051,1.563.017,2.897-.211,4.409-.372,2.221-2.694,8.725-5.093,13.59-.498-.904-1.512-2.872-2.88-5.769-1.368-2.922-2.542-5.921-2.542-5.921.743-1.63,1.875-5.439,1.867-8.303.017-1.351-.051-2.559-.135-3.868.084,3.243.203,6.782-2.002,11.495,0,0-.118-.287-.304-.786-1.883-5.017-3.404-9.62-4.679-14.95-.211-.895-.38-1.639-.481-2.171-.11-.524-.177-.819-.177-.819,0,0,.059.321.169.904.093.574.27,1.385.465,2.373,1.343,6.275,3.134,11.867,5.135,17.272-1.639-.009-6.411-3.074-8.987-10.042,2.39,7.264,7.365,10.735,9.189,10.566,2.948,7.492,5.422,12.112,5.76,12.678-1.858.093-5.329-.498-8.809-2.306-3.978-2.145-7.61-6.436-9.367-9.586,1.427,2.846,3.784,5.794,6.064,7.914,3.75,3.455,9.764,5.33,12.669,5,1.926,3.539,4.764,7.99,7.754,11.698-3.471.887-6.977,1.064-9.975.676-7.635-.938-12.086-4.637-15.558-7.737,4.561,4.451,9.823,8.683,19.291,8.961,2.154.076,4.51-.169,7.171-.752,0,0,3.936,4.89,9.502,8.995-3.345,2.373-4.865,2.77-6.656,3.049-8.801,1.453-17.492-2.736-20.355-3.792,3.522,1.588,6.495,3.353,12.956,4.569,3.294.591,7.813.861,10.87-.321,1.258-.524,3.412-1.672,4.552-2.525.346.228,3.362,2.221,5.203,3.024-3.522,6.723-13.742,8.564-22.34,5.726,7.77,3.311,19.705,2.77,24.021-4.933.135.076,2.492.98,2.644,1.039.49.186,1.039.321,1.571.49,1.858.549.566.245,4.367,1.081l.355-2.154c-4.873-.946-6.233-1.402-10.102-3.108.693-2.331,1.377-5.76,1.563-8.083.245-2.965.304-8.421-.38-11.191.321,3.311-.177,7.804-.464,10.363-.439,3.683-1.14,5.423-2.306,8.117,0,0-1.884-.912-5.017-3.1.422-.802,2.77-9.502,2.914-10.245,1.047-5.135,1.157-5.591,1.284-6.639.507-4.426.051-6.064-.093-6.698.093.633.177,2.534-.177,5.338-.262,2.078-1.25,6.022-1.85,7.973"/>
</svg>