<?xml version="1.0" encoding="UTF-8"?>
<svg id="Layer_3" xmlns="http://www.w3.org/2000/svg" version="1.1" viewBox="0 0 142.155 230.531">
  <!-- Generator: Adobe Illustrator 30.2.1, SVG Export Plug-In . SVG Version: 2.1.1 Build 1)  -->
  <defs>
    <style>
      .st0 {
        fill: #2c6733;
      }

      .st1 {
        fill: #4b8b3f;
      }

      .st2 {
        fill: #82c341;
      }
    </style>
  </defs>
  <path class="st1" d="M14.98,99.691c.203,8.682.48,18.345,4.245,22.036,1.323-.171,2.283-1.13,3.115-2.197,1.482,5.184,3.168,10.901,5.333,16.329,2.133,5.472,4.789,10.612,8.469,14.527,1.195-.341,1.909-1.355,2.624-2.368,2.837,5.738,6.165,12.095,9.578,18.047,3.413,5.93,7.039,11.391,10.719,15.103,1.269-.693,1.579-2.656,1.888-4.597,6.687,11.338,13.162,19.636,18.665,23.636.928-.672,1.216-1.909,1.376-3.253,3.627,6.208,9.098,13.983,14.922,18.484,6.005-4.266,11.135-13.044,13.823-20.34.331,1.451.747,2.784,1.749,3.424,5.024-5.056,10.335-15.54,13.354-30.931.875,2.187,1.707,4.437,3.136,4.917,2.571-5.482,4.224-13.343,4.96-22.1.747-8.746.427-18.399-.64-27.326,1.216.832,2.432,1.707,3.648,1.451.789-7.231-.555-15.903-3.317-24.809-2.805-8.927-7.103-18.047-11.775-26.217,1.6.491,3.018.715,3.914-.459-.533-2.261-1.707-4.832-3.274-7.573-1.536-2.741-3.776-5.653-6.144-8.575-2.443-2.912-5.322-5.834-8.255-8.618-1.547-1.386-3.115-2.741-4.693-4.042-1.568-1.312-3.136-2.56-4.8-3.733,1.504-.779,2.688-1.717,2.773-3.264-5.237-6.837-20.713-13.62-37.736-15.721.384-1.824.885-3.648-.843-5.93-1.344-.437-3.584-.597-6.218-.437-2.699.213-5.781.715-8.767,1.451-1.493.363-2.965.779-4.352,1.226-1.408.469-2.773,1.013-3.989,1.536-2.442,1.067-4.384,2.176-5.493,3.104-8.981,7.541-15.988,21.406-19.657,32.232-.448,1.333-.864,3.381-1.29,5.696-.427,2.293-.907,4.917-1.376,7.488-.48,2.538-.939,4.938-1.269,6.869-.352,2.005-.576,3.562-.459,4.33,1.365.299,2.784-.757,4.224-1.706-1.163,11.86-3.754,21.044-1.824,24.382,1.109-.16,2.368-1.003,3.658-2.069"/>
  <path class="st0" d="M14.98,99.691c.203,8.682.48,18.345,4.245,22.036,1.323-.171,2.283-1.13,3.115-2.197,1.482,5.184,3.168,10.901,5.333,16.329,2.133,5.472,4.789,10.612,8.469,14.527,1.195-.341,1.909-1.355,2.624-2.368,2.837,5.738,6.165,12.095,9.578,18.047,3.413,5.93,7.039,11.391,10.719,15.103,1.269-.693,1.579-2.656,1.888-4.597,6.687,11.338,13.162,19.636,18.665,23.636.928-.672,1.216-1.909,1.376-3.253,3.627,6.208,9.098,13.983,14.922,18.484v-2.261c.032-1.472-.011-3.637-.064-6.389-.149-5.504-.512-13.364-1.493-22.74-.981-9.386-2.539-20.297-4.885-31.848-2.41-11.551-5.578-23.753-9.748-35.613-4.202-11.86-9.258-23.433-15.178-33.64-5.888-10.218-12.522-19.081-18.985-25.961-.8-.853-1.579-1.717-2.368-2.517-.811-.779-1.611-1.536-2.389-2.282-.779-.736-1.536-1.461-2.283-2.165-.736-.704-1.525-1.301-2.25-1.92-1.483-1.216-2.826-2.41-4.149-3.402-1.344-.97-2.581-1.866-3.69-2.677-.565-.395-1.088-.779-1.589-1.141-.501-.341-1.003-.629-1.451-.907-.917-.565-1.685-1.045-2.314-1.429-1.259-.779-1.92-1.195-1.92-1.195-3.328,5.77-6.015,11.935-7.839,17.353-.448,1.333-.864,3.381-1.29,5.696-.427,2.293-.907,4.917-1.376,7.488-.48,2.538-.939,4.938-1.269,6.869-.352,2.005-.576,3.562-.459,4.33,1.365.299,2.784-.757,4.224-1.706-1.163,11.86-3.754,21.044-1.824,24.382,1.109-.16,2.368-1.003,3.658-2.069"/>
  <path class="st2" d="M34.479,84.792c3.072-5.664,12.127-20.532,13.311-22.089,6.026,7.093,10.943,13.396,18.324,26.675-4.448,3.189-9.749,10.645-14.538,18.964-9.141,16.169-10.73,24.009-12.106,34.792,2.666-12.884,5.194-21.684,14.975-35.475,3.328-4.917,8.426-12.127,13.268-15.273,9.738,19.316,14.175,34.664,14.175,34.664-19.711,30.088-20.734,38.152-21.726,46.482.683-4.01,1.451-7.402,2.816-11.135,2.08-5.493,11.317-20.873,19.935-32.051.8,2.539,2.389,8.095,4.394,16.169,1.994,8.149,3.456,16.415,3.456,16.415-2.73,3.786-7.573,12.916-9.012,20.222-.725,3.424-1.173,6.538-1.632,9.93,1.45-8.33,2.944-17.407,10.986-28.296,0,0,.16.789.373,2.154,2.24,13.77,3.765,26.27,4.288,40.53.075,2.389.128,4.384.128,5.77.011,1.397.011,2.197.011,2.197,0,0,.021-.875.043-2.389.043-1.525.032-3.69.021-6.293-.213-16.692-1.909-31.869-4.256-46.695,4.17.864,14.772,11.135,17.78,30.206-2.379-19.732-13.279-31.144-18.015-31.635-3.701-20.628-7.658-33.672-8.213-35.283,4.778.715,13.332,4.01,21.268,10.389,9.066,7.498,16.137,20.318,18.985,29.246-2.165-7.999-6.666-16.713-11.402-23.294-7.797-10.73-22.164-18.591-29.768-19.241-3.082-10.015-8.053-22.814-13.78-33.789,9.311-.501,18.335.853,25.79,3.37,18.996,6.314,28.446,18.004,35.709,27.71-9.343-13.695-20.596-27.177-44.615-32.744-5.45-1.291-11.573-1.877-18.655-1.728,0,0-7.551-14.495-19.636-27.827,9.727-4.33,13.823-4.565,18.527-4.373,23.177.811,43.218,15.935,49.969,20.105-8.159-5.866-14.836-11.871-30.707-18.303-8.095-3.178-19.465-6.186-27.891-4.736-3.466.693-9.546,2.517-12.895,4.106-.768-.757-7.434-7.37-11.711-10.367,12.415-15.338,39.421-14.804,59.899-3.178-18.132-12.426-48.828-17.14-63.782.299-.32-.277-5.866-3.765-6.218-3.989-1.152-.736-2.475-1.365-3.754-2.069-4.458-2.346-1.333-.928-10.581-4.992l-2.027,5.322c11.956,4.896,15.188,6.762,24.201,13.087-2.965,5.6-6.485,13.994-8.127,19.807-2.144,7.445-5.077,21.321-4.757,28.744.864-8.618,4.437-19.806,6.485-26.206,3.008-9.151,5.685-13.226,10.037-19.497,0,0,4.341,3.274,11.199,10.453-1.482,1.834-11.914,22.825-12.671,24.638-5.312,12.575-5.813,13.663-6.666,16.287-3.562,11.018-3.242,15.444-3.2,17.129.085-1.664.843-6.56,3.189-13.535,1.738-5.141,6.261-14.698,8.799-19.38"/>
</svg>