<?xml version="1.0" encoding="UTF-8"?>
<svg id="Layer_3" xmlns="http://www.w3.org/2000/svg" version="1.1" viewBox="0 0 142.155 230.531">
  <!-- Generator: Adobe Illustrator 30.2.1, SVG Export Plug-In . SVG Version: 2.1.1 Build 1)  -->
  <defs>
    <style>
      .st0 {
        fill: #2c6733;
      }

      .st1 {
        fill: #4b8b3f;
      }

      .st2 {
        fill: #82c341;
      }
    </style>
  </defs>
  <path class="st1" d="M130.639,142.033c1.356-9.095,2.813-19.229-.452-23.76-1.412-.068-2.587.768-3.638,1.717-.621-5.672-1.333-11.942-2.621-17.998-1.231-6.101-3.084-11.953-6.214-16.698-1.311.147-2.237,1.073-3.163,2-1.932-6.496-4.248-13.738-6.734-20.562-2.486-6.813-5.287-13.162-8.462-17.715-1.446.497-2.124,2.497-2.802,4.463-4.937-13.038-10.191-22.867-15.207-28.042-1.085.531-1.616,1.774-2.022,3.152-2.666-7.14-6.96-16.247-12.236-21.986-7.039,3.355-13.976,11.592-18.111,18.721-.068-1.57-.271-3.028-1.198-3.886-6.157,4.372-13.603,14.36-19.534,29.86-.508-2.429-.983-4.926-2.384-5.683-3.661,5.254-6.813,13.151-9.174,22.167-2.361,8.993-3.762,19.128-4.271,28.629-1.107-1.085-2.226-2.214-3.536-2.169-2.135,7.4-2.293,16.698-1.028,26.494,1.322,9.818,4.146,20.122,7.558,29.488-1.582-.791-3.028-1.288-4.18-.226.158,2.452.915,5.355,2.056,8.496,1.107,3.141,2.915,6.587,4.858,10.055,2.022,3.491,4.497,7.061,7.061,10.496,1.367,1.729,2.757,3.423,4.169,5.073,1.401,1.638,2.802,3.231,4.338,4.756-1.706.542-3.118,1.311-3.491,2.904,4.225,8.078,19.161,17.964,36.549,23.229-.734,1.842-1.582,3.649-.192,6.338,1.322.712,3.627,1.265,6.406,1.582,2.858.271,6.169.305,9.423.079,1.616-.113,3.231-.283,4.768-.497,1.548-.237,3.062-.554,4.429-.881,2.745-.678,4.971-1.48,6.293-2.248,10.744-6.248,20.562-19.455,26.347-30.086.712-1.311,1.514-3.378,2.373-5.706.859-2.327,1.842-4.971,2.802-7.57.949-2.565,1.864-4.994,2.553-6.948.734-2.034,1.243-3.615,1.265-4.44-1.367-.554-3.039.294-4.711,1.028,3.356-12.168,7.717-21.285,6.304-25.127-1.186-.034-2.644.621-4.192,1.503"/>
  <path class="st0" d="M130.639,142.033c1.356-9.095,2.813-19.229-.452-23.76-1.412-.068-2.587.768-3.638,1.717-.621-5.672-1.333-11.942-2.621-17.998-1.231-6.101-3.084-11.953-6.214-16.698-1.311.147-2.237,1.073-3.163,2-1.932-6.496-4.248-13.738-6.734-20.562-2.486-6.813-5.287-13.162-8.462-17.715-1.446.497-2.124,2.497-2.802,4.463-4.937-13.038-10.191-22.867-15.207-28.042-1.085.531-1.616,1.774-2.022,3.152-2.666-7.14-6.96-16.247-12.236-21.986,0,0-.147.814-.418,2.361-.282,1.525-.633,3.796-1.085,6.677-.836,5.762-1.875,14.032-2.542,24.008-.678,9.965-1.028,21.636-.655,34.12.429,12.484,1.525,25.793,3.728,38.933,2.248,13.128,5.434,26.121,9.761,37.848,4.305,11.727,9.626,22.178,15.128,30.527.678,1.04,1.333,2.079,2.011,3.062.712.96,1.412,1.898,2.09,2.813.678.915,1.344,1.796,1.977,2.666.644.87,1.367,1.627,2.011,2.418,1.333,1.525,2.519,3.017,3.717,4.305,1.22,1.254,2.35,2.406,3.367,3.446.508.52.994,1.017,1.446,1.48.475.452.938.836,1.356,1.22.847.746,1.57,1.39,2.158,1.909,1.164,1.028,1.796,1.582,1.796,1.582,4.508-5.412,8.417-11.366,11.309-16.687.712-1.311,1.514-3.378,2.373-5.706.859-2.327,1.842-4.971,2.802-7.57.949-2.565,1.864-4.994,2.553-6.948.734-2.034,1.243-3.615,1.265-4.44-1.367-.554-3.039.294-4.711,1.028,3.356-12.168,7.717-21.285,6.304-25.127-1.186-.034-2.644.621-4.192,1.503"/>
  <path class="st2" d="M107.594,154.06c-4.237,5.355-16.371,19.241-17.885,20.653-5.005-8.496-8.993-15.964-14.303-31.16,5.22-2.52,12.1-9.344,18.596-17.162,12.473-15.218,15.546-23.116,18.924-34.131-5.107,12.97-9.343,21.704-22.042,34.323-4.361,4.531-10.982,11.129-16.608,13.546-6.666-21.929-8.53-38.752-8.53-38.752,26.008-27.838,28.539-36.063,31.081-44.582-1.435,4.056-2.847,7.468-4.949,11.117-3.175,5.355-15.58,19.738-26.607,29.849-.373-2.802-1.028-8.88-1.65-17.681-.61-8.858-.644-17.749-.644-17.749,3.525-3.457,10.225-12.111,13.061-19.478,1.367-3.446,2.406-6.609,3.491-10.066-3.017,8.428-6.214,17.636-16.574,27.544,0,0-.034-.847,0-2.316.147-14.766.813-28.098,2.847-43.079.362-2.508.655-4.587.915-6.044.237-1.457.373-2.294.373-2.294,0,0-.169.904-.475,2.486-.316,1.582-.689,3.853-1.152,6.564-2.802,17.467-3.762,33.612-3.999,49.508-4.203-1.661-13.399-14.292-13.094-34.741-1.085,21.025,8.236,34.9,13.083,36.278.136,22.189,1.898,36.515,2.192,38.312-4.858-1.604-13.196-6.598-20.325-14.699-8.112-9.456-13.173-24.11-14.529-33.95.813,8.745,3.943,18.653,7.694,26.37,6.191,12.62,19.771,23.421,27.59,25.466,1.412,11.004,4.282,25.274,8.281,37.769-9.807-1.175-18.981-4.214-26.313-8.191-18.687-10.01-26.437-23.929-32.267-35.374,7.276,15.987,16.597,32.098,40.65,42.243,5.457,2.327,11.739,4.045,19.161,5.174,0,0,5.265,16.495,15.467,32.595-10.936,2.757-15.252,2.271-20.133,1.209-24.042-5.039-42.221-24.437-48.514-30.007,7.445,7.592,13.332,15.072,28.742,24.652,7.875,4.779,19.195,9.965,28.256,9.976,3.74-.09,10.417-.904,14.19-1.954.678.926,6.429,9.038,10.349,12.936-15.727,13.772-43.814,8.327-63.077-7.513,16.676,16.258,47.858,26.731,66.613,11.23.282.339,5.434,4.994,5.773,5.287,1.073.972,2.339,1.864,3.536,2.836,4.237,3.254,1.22,1.198,10.146,7.118l3.073-5.186c-11.592-7.265-14.62-9.795-22.89-18.032,4.112-5.31,9.298-13.433,12.066-19.207,3.581-7.378,9.151-21.331,10.168-29.149-2.463,8.846-8.225,19.885-11.513,26.189-4.802,9.004-8.327,12.778-13.998,18.54,0,0-3.943-4.214-9.795-12.936,1.864-1.65,16.552-21.67,17.681-23.432,7.807-12.168,8.53-13.207,9.886-15.795,5.717-10.858,6.18-15.535,6.44-17.297-.384,1.717-2.068,6.688-5.773,13.546-2.745,5.061-9.197,14.213-12.688,18.642"/>
</svg>