<?xml version="1.0" encoding="UTF-8"?>
<svg id="Layer_4" xmlns="http://www.w3.org/2000/svg" version="1.1" viewBox="0 0 142.155 230.531">
  <!-- Generator: Adobe Illustrator 30.2.1, SVG Export Plug-In . SVG Version: 2.1.1 Build 1)  -->
  <defs>
    <style>
      .st0 {
        fill: #fba919;
      }

      .st1 {
        fill: #698a3b;
      }

      .st2 {
        fill: #3c5527;
      }

      .st3 {
        fill: #8c301c;
      }
    </style>
  </defs>
  <path class="st0" d="M58.159,54.173s-27.948,3.105-42.541,23.913c-14.599,20.803-10.872,52.478-8.075,63.971,2.796,11.489,2.796,28.503-.314,37.231-3.105,8.728-4.344,25.804,16.773,29.845,21.116,4.035,62.414-3.727,89.123-50.308,26.704-46.582,10.867-108.07-54.965-104.652"/>
  <path class="st3" d="M62.504,54.044s-5.999-9.602,1.244-30.097c0,0-3.932-6.456-11.797-1.779,0,0-1.542,20.155,2.642,32.6,0,0,3.351,5.978,7.911-.725"/>
  <path class="st1" d="M57.71,37.222s3.521-10.548,23.599-11.792c20.083-1.244,34.99,20.911,40.578,28.364,5.593,7.448,11.597,11.797,15.318,11.797,0,0-15.493,6.975-38.28,4.318-22.792-2.663-39.971-23.378-41.215-32.687"/>
  <path class="st2" d="M60.536,37.017c16.259-4.374,33.057,5.875,44.207,17.02-13.843-7.479-27.963-16.845-44.207-17.02"/>
</svg>