<?xml version="1.0" encoding="UTF-8"?>
<svg id="Layer_4" xmlns="http://www.w3.org/2000/svg" version="1.1" viewBox="0 0 142.155 230.531">
  <!-- Generator: Adobe Illustrator 30.2.1, SVG Export Plug-In . SVG Version: 2.1.1 Build 1)  -->
  <defs>
    <style>
      .st0 {
        fill: #fba919;
      }

      .st1 {
        fill: #698a3b;
      }

      .st2 {
        fill: #3c5527;
      }

      .st3 {
        fill: #8c301c;
      }
    </style>
  </defs>
  <path class="st0" d="M80.31,71.788s-21.462-4.771-37.524,6.931c-16.058,11.698-21.314,36.075-22.15,45.284-.84,9.205-5.142,21.794-9.647,27.467-4.505,5.669-9.744,17.992,4.857,26.319,14.601,8.326,47.12,13.03,78.659-14.675,31.539-27.706,35.375-77.201-14.195-91.326"/>
  <path class="st3" d="M83.557,72.791s-2.012-8.619,8.533-21.95c0,0-1.278-5.775-8.279-4.302,0,0-6.236,14.519-6.287,24.787,0,0,.965,5.271,6.033,1.465"/>
  <path class="st1" d="M84.266,59.133s5.271-6.916,20.442-2.755c15.172,4.161,20.595,24.318,22.845,31.246,2.251,6.927,5.595,11.663,8.35,12.604,0,0-13.226,1.239-29.413-6.49-16.187-7.732-23.658-27.405-22.224-34.606"/>
  <path class="st2" d="M86.407,59.697c13.136.875,22.97,12.706,28.397,23.771-8.35-9.033-16.422-19.536-28.397-23.771"/>
</svg>