<?xml version="1.0" encoding="UTF-8"?>
<svg id="Layer_4" xmlns="http://www.w3.org/2000/svg" version="1.1" viewBox="0 0 142.155 230.531">
  <!-- Generator: Adobe Illustrator 30.2.1, SVG Export Plug-In . SVG Version: 2.1.1 Build 1)  -->
  <defs>
    <style>
      .st0 {
        fill: #fba919;
      }

      .st1 {
        fill: #698a3b;
      }

      .st2 {
        fill: #3c5527;
      }

      .st3 {
        fill: #8c301c;
      }
    </style>
  </defs>
  <path class="st0" d="M83.139,58.23s26.095,2.897,39.719,22.327c13.63,19.424,10.151,48.998,7.542,59.726-2.614,10.728-2.614,26.613.288,34.762,2.897,8.149,4.057,24.093-15.656,27.861-19.718,3.768-58.277-3.48-83.212-46.967C6.886,112.445,21.67,55.039,83.139,58.23"/>
  <path class="st3" d="M79.083,58.11s5.605-8.961-1.16-28.102c0,0,3.668-6.029,11.016-1.66,0,0,1.437,18.817-2.473,30.44,0,0-3.126,5.582-7.383-.677"/>
  <path class="st1" d="M83.558,42.403s-3.285-9.85-22.032-11.01c-18.753-1.16-32.671,19.524-37.888,26.483-5.217,6.953-10.822,11.016-14.301,11.016,0,0,14.466,6.512,35.745,4.027,21.273-2.485,37.317-21.826,38.477-30.516"/>
  <path class="st2" d="M80.92,42.212c-15.179-4.086-30.864,5.482-41.274,15.891,12.924-6.983,26.107-15.732,41.274-15.891"/>
</svg>