<?xml version="1.0" encoding="UTF-8"?>
<svg id="Layer_3" xmlns="http://www.w3.org/2000/svg" version="1.1" viewBox="0 0 142.155 230.531">
  <!-- Generator: Adobe Illustrator 30.2.1, SVG Export Plug-In . SVG Version: 2.1.1 Build 1)  -->
  <defs>
    <style>
      .st0 {
        fill: #338b42;
      }

      .st1 {
        fill: #ef4153;
      }

      .st2 {
        fill: #871724;
      }
    </style>
  </defs>
  <path class="st1" d="M40.499,65.051C22.898,108.652,6.792,163.023,5.033,170.117c-1.945,7.864,5.126,8.745,5.126,8.745,29.615,2.38,86.329-6.221,112.702-10.645-13.368-79.395-71.039-99.884-82.362-103.167"/>
  <path class="st0" d="M40.499,65.051c11.324,3.284,68.994,23.772,82.362,103.167,8.73-1.465,14.138-2.471,14.138-2.471,0,0,6.365-32.93-28.235-75.123-34.596-42.198-62.495-39.322-62.495-39.322-1.93,4.405-3.86,9.016-5.771,13.749"/>
  <path class="st2" d="M77.845,124.774s7.109-1.636,4.867-3.978c-2.555-2.658-4.867,3.978-4.867,3.978"/>
  <path class="st2" d="M56.16,126.48s7.109-1.636,4.867-3.978c-2.555-2.658-4.867,3.978-4.867,3.978"/>
  <path class="st2" d="M63.804,144.951s7.266-.656,5.359-3.28c-2.166-2.983-5.359,3.28-5.359,3.28"/>
  <path class="st2" d="M38.43,156.552s5.614-.786,4.031-2.75c-1.796-2.231-4.031,2.75-4.031,2.75"/>
  <path class="st2" d="M44.165,170.031s6.449.915,5.587-1.453c-.976-2.696-5.587,1.453-5.587,1.453"/>
  <path class="st2" d="M24.052,168.8s4.451.633,3.856-1.003c-.675-1.861-3.856,1.003-3.856,1.003"/>
  <path class="st2" d="M30.268,148.802s5.412-1.686,3.536-3.364c-2.132-1.911-3.536,3.364-3.536,3.364"/>
  <path class="st2" d="M17.208,160.931s4.439-1.381,2.899-2.761c-1.751-1.568-2.899,2.761-2.899,2.761"/>
  <path class="st2" d="M23.225,141.683s4.985-2.7,2.819-3.986c-2.464-1.461-2.819,3.986-2.819,3.986"/>
  <path class="st2" d="M88.187,141.227s7.281-.496,5.431-3.162c-2.101-3.028-5.431,3.162-5.431,3.162"/>
  <path class="st2" d="M96.171,162.417s7.285.397,5.778-2.475c-1.72-3.261-5.778,2.475-5.778,2.475"/>
  <path class="st2" d="M71.168,168.022s7.285.397,5.778-2.475c-1.72-3.261-5.778,2.475-5.778,2.475"/>
  <path class="st2" d="M63.572,107.274s6.69-2.91,4.054-4.802c-2.998-2.147-4.054,4.802-4.054,4.802"/>
  <path class="st2" d="M44.875,92.812s5.885-4.317,2.895-5.576c-3.398-1.434-2.895,5.576-2.895,5.576"/>
  <path class="st2" d="M36.198,126.419s5.885-4.317,2.895-5.576c-3.398-1.434-2.895,5.576-2.895,5.576"/>
</svg>