<?xml version="1.0" encoding="UTF-8"?>
<svg id="Layer_3" xmlns="http://www.w3.org/2000/svg" version="1.1" viewBox="0 0 142.155 230.531">
  <!-- Generator: Adobe Illustrator 30.2.1, SVG Export Plug-In . SVG Version: 2.1.1 Build 1)  -->
  <defs>
    <style>
      .st0 {
        fill: #338b42;
      }

      .st1 {
        fill: #ef4153;
      }

      .st2 {
        fill: #871724;
      }
    </style>
  </defs>
  <path class="st1" d="M121.098,139.437c-42.43,20.362-95.708,39.918-102.684,42.124-7.731,2.447-9.062-4.564-9.062-4.564-4.268-29.424.706-86.626,3.443-113.252,80.155,8.292,104.3,64.593,108.303,75.692"/>
  <path class="st0" d="M121.098,139.437c-4.003-11.099-28.148-67.4-108.303-75.692.906-8.812,1.566-14.277,1.566-14.277,0,0,32.487-8.457,76.843,23.409,44.351,31.871,43.26,59.919,43.26,59.919-4.278,2.212-8.757,4.429-13.366,6.64"/>
  <path class="st2" d="M59.061,105.943s1.181-7.206,3.663-5.114c2.817,2.382-3.663,5.114-3.663,5.114"/>
  <path class="st2" d="M58.741,127.712s1.181-7.206,3.663-5.114c2.817,2.382-3.663,5.114-3.663,5.114"/>
  <path class="st2" d="M39.803,121.255s.19-7.301,2.932-5.565c3.118,1.977-2.932,5.565-2.932,5.565"/>
  <path class="st2" d="M29.832,147.339s.43-5.655,2.487-4.203c2.347,1.651-2.487,4.203-2.487,4.203"/>
  <path class="st2" d="M16.004,142.47s-1.326-6.385,1.096-5.675c2.752.806-1.096,5.675-1.096,5.675"/>
  <path class="st2" d="M18.516,162.481s-.916-4.404.756-3.913c1.902.555-.756,3.913-.756,3.913"/>
  <path class="st2" d="M38.095,154.998s1.336-5.515,3.138-3.748c2.042,2.012-3.138,3.748-3.138,3.748"/>
  <path class="st2" d="M26.813,168.817s1.096-4.524,2.572-3.073c1.676,1.646-2.572,3.073-2.572,3.073"/>
  <path class="st2" d="M45.655,161.578s2.377-5.149,3.803-3.068c1.616,2.367-3.803,3.068-3.803,3.068"/>
  <path class="st2" d="M41.967,96.661s.03-7.301,2.812-5.625c3.158,1.907-2.812,5.625-2.812,5.625"/>
  <path class="st2" d="M20.292,90.038s-.861-7.251,2.102-5.93c3.368,1.511-2.102,5.93-2.102,5.93"/>
  <path class="st2" d="M16.288,115.37s-.861-7.251,2.102-5.93c3.368,1.511-2.102,5.93-2.102,5.93"/>
  <path class="st2" d="M77.451,119.084s2.482-6.871,4.534-4.359c2.337,2.857-4.534,4.359-4.534,4.359"/>
  <path class="st2" d="M93.09,136.836s3.938-6.15,5.384-3.248c1.651,3.303-5.384,3.248-5.384,3.248"/>
  <path class="st2" d="M60.074,147.647s3.938-6.15,5.384-3.248c1.651,3.303-5.384,3.248-5.384,3.248"/>
</svg>