<?xml version="1.0" encoding="UTF-8"?>
<svg id="Layer_3" xmlns="http://www.w3.org/2000/svg" version="1.1" viewBox="0 0 142.155 230.531">
  <!-- Generator: Adobe Illustrator 30.2.1, SVG Export Plug-In . SVG Version: 2.1.1 Build 1)  -->
  <defs>
    <style>
      .st0 {
        fill: #338b42;
      }

      .st1 {
        fill: #ef4153;
      }

      .st2 {
        fill: #871724;
      }
    </style>
  </defs>
  <path class="st1" d="M109.976,165.499c13.588-44.479,24.769-99.432,25.893-106.575,1.24-7.918-5.805-8.174-5.805-8.174-29.381.205-84.52,13.564-110.128,20.195,20.013,77.073,78.603,92.293,90.041,94.554"/>
  <path class="st0" d="M109.976,165.499c-11.438-2.262-70.027-17.481-90.041-94.554-8.472,2.192-13.714,3.651-13.714,3.651,0,0-3.437,32.995,34.286,71.589,37.728,38.595,64.968,33.358,64.968,33.358,1.52-4.504,3.026-9.214,4.5-14.045"/>
  <path class="st2" d="M68.034,109.871s-6.864,2.224-4.453,4.336c2.746,2.401,4.453-4.336,4.453-4.336"/>
  <path class="st2" d="M89.254,106.322s-6.864,2.224-4.453,4.336c2.746,2.401,4.453-4.336,4.453-4.336"/>
  <path class="st2" d="M80.131,88.781s-7.102,1.273-4.999,3.693c2.392,2.751,4.999-3.693,4.999-3.693"/>
  <path class="st2" d="M104.132,75.165s-5.465,1.259-3.735,3.054c1.958,2.047,3.735-3.054,3.735-3.054"/>
  <path class="st2" d="M97.32,62.379s-6.435-.35-5.381,1.912c1.198,2.574,5.381-1.912,5.381-1.912"/>
  <path class="st2" d="M117.243,61.859s-4.439-.238-3.712,1.32c.825,1.777,3.712-1.32,3.712-1.32"/>
  <path class="st2" d="M112.842,82.098s-5.185,2.126-3.194,3.618c2.266,1.702,3.194-3.618,3.194-3.618"/>
  <path class="st2" d="M124.665,69.022s-4.253,1.744-2.621,2.97c1.86,1.394,2.621-2.97,2.621-2.97"/>
  <path class="st2" d="M120.394,88.505s-4.677,3.087-2.434,4.169c2.555,1.231,2.434-4.169,2.434-4.169"/>
  <path class="st2" d="M56.428,94.551s-7.13,1.114-5.078,3.581c2.331,2.802,5.078-3.581,5.078-3.581"/>
  <path class="st2" d="M46.735,74.36s-7.214.238-5.479,2.933c1.972,3.068,5.479-2.933,5.479-2.933"/>
  <path class="st2" d="M70.888,66.684s-7.214.238-5.479,2.933c1.972,3.068,5.479-2.933,5.479-2.933"/>
  <path class="st2" d="M83.606,125.884s-6.342,3.446-3.581,5.078c3.138,1.861,3.581-5.078,3.581-5.078"/>
  <path class="st2" d="M103.273,138.523s-5.423,4.761-2.373,5.745c3.474,1.119,2.373-5.745,2.373-5.745"/>
  <path class="st2" d="M108.928,104.663s-5.423,4.761-2.373,5.745c3.474,1.119,2.373-5.745,2.373-5.745"/>
</svg>